<svg xmlns="http://www.w3.org/2000/svg" width="173.50" height="224.84" viewBox="0 0 173.50 224.84"><path d="M168.78,0.00L166.78,0.03L164.56,1.34L158.78,9.12L143.78,25.34L119.70,55.34L112.39,65.34L105.47,73.34L101.40,79.34L91.78,90.48L88.78,95.14L79.57,106.34L70.37,119.34L64.78,126.13L63.78,126.93L62.78,126.91L57.78,123.37L54.78,122.50L49.78,122.58L45.07,124.34L43.43,128.34L42.47,136.34L39.78,138.02L36.23,139.34L28.78,146.03L19.78,150.47L15.78,156.18L13.78,158.06L9.78,160.29L7.68,162.34L5.81,166.34L5.40,174.34L2.98,185.34L2.40,197.34L4.38,203.34L2.89,209.34L3.57,212.34L4.66,214.34L4.39,216.34L0.00,224.34L2.78,224.84L56.78,224.84L59.17,224.34L62.18,216.34L70.68,204.34L76.96,180.34L77.20,159.34L78.19,156.34L78.23,149.34L79.15,146.34L82.13,141.34L83.12,138.34L83.18,135.34L82.02,133.34L79.71,131.34L80.08,129.34L102.60,100.34L111.10,88.34L136.78,56.33L142.19,48.34L151.44,36.34L166.09,14.34L172.91,6.34L173.50,4.34L173.09,1.34L171.78,0.24Z" fill="#FFA400"/></svg>