<?xml version="1.0" encoding="utf-8"?>
<!-- Generator: Adobe Illustrator 24.3.0, SVG Export Plug-In . SVG Version: 6.00 Build 0)  -->
<!DOCTYPE svg PUBLIC "-//W3C//DTD SVG 1.1//EN" "http://www.w3.org/Graphics/SVG/1.1/DTD/svg11.dtd" [
	<!ENTITY ns_extend "http://ns.adobe.com/Extensibility/1.0/">
	<!ENTITY ns_ai "http://ns.adobe.com/AdobeIllustrator/10.0/">
	<!ENTITY ns_graphs "http://ns.adobe.com/Graphs/1.0/">
	<!ENTITY ns_vars "http://ns.adobe.com/Variables/1.0/">
	<!ENTITY ns_imrep "http://ns.adobe.com/ImageReplacement/1.0/">
	<!ENTITY ns_sfw "http://ns.adobe.com/SaveForWeb/1.0/">
	<!ENTITY ns_custom "http://ns.adobe.com/GenericCustomNamespace/1.0/">
	<!ENTITY ns_adobe_xpath "http://ns.adobe.com/XPath/1.0/">
]>
<svg version="1.1" xmlns:x="&ns_extend;" xmlns:i="&ns_ai;" xmlns:graph="&ns_graphs;"
	 xmlns="http://www.w3.org/2000/svg" xmlns:xlink="http://www.w3.org/1999/xlink"
	 xml:space="preserve" width="1414" height="2000" viewBox="121.3289 -131.3465 598.8333 847.0061">
	
	
<switch>
	
	<g i:extraneous="self">
		<g id="Layer_8" display="none">
			
				
			<g transform="matrix(1 0 0 1 183.7684 497.8568)" display="inline" fill="#ED2024"><path d="M531,1321C474,1321 424,1301 383,1260C344,1220 324,1171 324,1114C324,1046 355,994 416,958C443,943 524,917 658,879C773,844 856,803 908,756C987,683 1026,583 1026,455C1026,329 981,222 891,133C802,44 696,0 572,0l-381,0C158,0 130,12 107,37C82,60 70,88 70,121l0,6C70,160 82,188 107,213C130,236 158,248 191,248l391,0C639,248 688,268 727,307C768,348 789,398 789,455C789,522 758,573 695,610C666,628 586,657 453,698C340,735 256,778 203,825C125,896 86,993 86,1114C86,1240 131,1347 220,1436C309,1525 415,1569 539,1569l270,0C842,1569 870,1557 895,1532C918,1509 930,1481 930,1448l0,-6C930,1409 918,1381 895,1356C870,1333 842,1321 809,1321z" transform="matrix(0.0644531 0 0 -0.0644531 0 0)"/><path d="M225,1563C256,1563 284,1551 309,1528C334,1503 346,1475 346,1442l0,-348C398,1133 477,1153 583,1153C716,1153 830,1105 925,1010C1020,915 1067,801 1067,668l0,-547C1067,87 1055,59 1032,37C1009,12 980,0 946,0l-2,0C911,0 883,12 858,37C835,59 823,87 823,121l0,547C823,735 800,791 753,838C707,884 650,907 583,907C518,907 461,884 413,838C368,791 346,735 346,668l0,-547C346,87 334,59 309,37C284,12 256,0 225,0l-4,0C188,0 160,12 137,37C112,59 100,87 100,121l0,1321C100,1475 112,1503 137,1528C160,1551 188,1563 221,1563z" transform="matrix(0.0644531 0 0 -0.0644531 70.6406 0)"/><path d="M1083,983C1196,870 1253,734 1253,575l0,-454C1253,87 1241,59 1216,37C1191,12 1163,0 1130,0l-2,0C1095,0 1067,12 1042,37C1019,59 1007,87 1007,121C931,40 820,0 675,0C517,0 382,57 270,170C157,282 100,417 100,575C100,734 157,870 270,983C382,1096 517,1153 675,1153C834,1153 970,1096 1083,983M442,811C378,746 346,667 346,575C346,484 378,406 442,342C506,278 584,246 675,246C768,246 847,278 911,342C975,406 1007,484 1007,575C1007,667 975,746 911,811C846,875 767,907 675,907C584,907 506,875 442,811z" transform="matrix(0.0644531 0 0 -0.0644531 145.857 0)"/><path d="M598,1153C632,1153 661,1141 684,1116C707,1091 718,1063 718,1030l0,-2C718,995 707,967 684,942C661,919 632,907 598,907l-58,0C485,907 439,888 401,850C364,812 346,766 346,711l0,-590C346,87 334,59 309,37C284,12 256,0 225,0l-4,0C188,0 160,12 137,37C112,59 100,87 100,121l0,590C101,834 144,938 229,1024C315,1110 419,1153 540,1153z" transform="matrix(0.0644531 0 0 -0.0644531 232.998 0)"/><path d="M262,1153C297,1153 325,1141 346,1116C371,1091 383,1063 383,1030l0,-909C383,87 371,59 346,37C325,12 297,0 262,0l-2,0C226,0 197,12 174,37C149,59 137,87 137,121l0,909C137,1063 149,1091 174,1116C197,1141 226,1153 260,1153M162,1323C135,1350 121,1383 121,1421C121,1460 135,1493 162,1520C189,1547 222,1561 260,1561C299,1561 332,1547 359,1520C388,1494 402,1461 402,1421C402,1383 388,1350 359,1323C332,1296 299,1282 260,1282C222,1282 189,1296 162,1323z" transform="matrix(0.0644531 0 0 -0.0644531 279.984 0)"/><path d="M346,121C346,87 334,59 309,37C284,12 256,0 225,0l-4,0C188,0 160,12 137,37C112,59 100,87 100,121l0,547C100,801 147,915 241,1010C337,1105 451,1153 583,1153C716,1153 830,1105 925,1010C1020,915 1067,801 1067,668l0,-547C1067,87 1055,59 1032,37C1009,12 980,0 946,0l-2,0C911,0 883,12 858,37C835,59 823,87 823,121l0,547C823,735 800,791 753,838C707,884 650,907 583,907C518,907 461,884 413,838C368,791 346,735 346,668z" transform="matrix(0.0644531 0 0 -0.0644531 313.5 0)"/><path d="M645,-166C728,-166 804,-133 873,-68C942,-1 977,77 977,166C901,55 790,0 645,0C487,0 352,57 240,170C127,282 70,417 70,575C70,734 127,870 240,983C352,1096 487,1153 645,1153C804,1153 939,1096 1051,983C1164,872 1222,737 1223,578l0,-412C1223,9 1162,-128 1041,-244C925,-356 793,-412 645,-412C422,-412 254,-325 142,-150C128,-129 121,-108 121,-86C121,-73 123,-59 127,-45C140,-8 164,17 201,31l4,2C222,38 237,41 252,41C291,41 322,23 346,-14C413,-115 513,-166 645,-166M977,582C976,672 943,748 879,811C815,875 737,907 645,907C554,907 476,875 412,811C348,746 316,667 316,575C316,484 348,406 412,342C476,278 554,246 645,246C738,246 817,278 881,342C945,406 977,484 977,575z" transform="matrix(0.0644531 0 0 -0.0644531 388.717 0)"/></g>
			<polyline display="inline" fill="#ED2024" points="186.43,555 281.43,555 281.43,566.14 186.43,566.14 186.43,555 			"/>
			<polyline display="inline" fill="#ED2024" points="557.71,555 652.71,555 652.71,566.14 557.71,566.14 557.71,555 			"/>
			
				<g transform="matrix(1 0 0 1 316.7384 566.1426)" display="inline" fill="#ED2024"><path d="M501,1701C505,1705 509,1709 514,1712C531,1723 548,1728 567,1728C590,1728 610,1721 626,1707C641,1692 649,1671 649,1643C649,1596 642,1550 627,1503C612,1456 596,1409 578,1363C565,1329 553,1296 542,1263C457,999 367,705 272,380C569,709 866,985 1164,1207l24,18C1228,1254 1269,1286 1310,1319C1351,1352 1389,1388 1424,1427C1459,1466 1488,1508 1510,1553C1532,1598 1543,1646 1543,1699C1543,1776 1525,1844 1489,1905C1453,1966 1406,2017 1347,2059C1288,2100 1224,2131 1153,2152C1144,2155 1138,2160 1133,2167C1128,2174 1126,2181 1126,2189C1126,2198 1129,2205 1134,2212C1139,2219 1147,2222 1158,2222C1225,2222 1288,2205 1347,2172C1406,2138 1458,2094 1503,2041C1547,1988 1581,1930 1606,1868C1631,1803 1643,1737 1643,1671C1643,1596 1629,1522 1602,1450C1575,1377 1538,1310 1491,1247C1434,1173 1370,1105 1299,1043C1227,980 1153,920 1077,862C1004,807 934,750 867,692C636,486 418,268 212,37C187,12 161,0 133,0C104,0 77,11 53,33C29,55 17,82 17,115C17,122 18,129 19,136C86,504 178,864 295,1215C266,1193 235,1175 202,1161C162,1143 120,1134 77,1134C43,1134 11,1141 -18,1156C-47,1171 -71,1194 -88,1227C-103,1257 -111,1287 -111,1316C-111,1353 -98,1387 -73,1420C-64,1430 -54,1435 -43,1435C-32,1435 -21,1430 -12,1421C-3,1412 1,1401 1,1388C1,1380 0,1373 -3,1367C-7,1360 -9,1353 -9,1344C-9,1330 -3,1321 9,1316C20,1311 34,1308 51,1308C74,1308 97,1311 120,1317C143,1322 159,1327 166,1330C208,1351 249,1373 288,1398C324,1420 356,1446 383,1475C394,1506 405,1537 418,1567C439,1618 466,1663 500,1702z" transform="matrix(0.0219727 0 0 -0.0219727 0 0)"/><path d="M240,0C132,0 54,34 7,103C-19,141 -32,183 -32,230C-31,289 -9,342 35,390C48,402 61,408 76,408C81,408 89,407 100,405C111,402 121,394 130,379C133,374 135,368 135,362C135,351 131,340 122,330C101,303 90,277 90,251C90,236 94,217 101,192C108,167 135,148 181,134C196,131 211,129 226,129C267,129 312,144 359,174C406,203 445,241 476,286C531,367 580,452 621,541C662,629 702,718 739,807C920,1244 1041,1502 1102,1582l-185,2l-197,-1C674,1583 625,1580 573,1574C521,1568 472,1550 427,1519C405,1503 387,1484 373,1462C359,1440 352,1419 352,1399C352,1368 368,1342 399,1323C414,1313 431,1308 449,1308C462,1308 476,1311 491,1316C497,1316 500,1315 500,1312l-2,-5C457,1274 414,1258 367,1258C360,1258 342,1259 312,1262C282,1265 251,1286 218,1327C197,1356 187,1387 187,1420l2,22C189,1446 191,1460 196,1484C201,1507 220,1539 253,1580C286,1620 323,1653 366,1680C439,1723 517,1750 601,1759C668,1766 735,1770 803,1770l46,-1l101,0C1190,1776 1335,1779 1386,1779C1424,1790 1462,1796 1499,1796C1550,1796 1600,1786 1649,1766C1680,1752 1695,1731 1695,1702l-1,-11C1691,1669 1681,1648 1663,1627C1644,1606 1618,1593 1584,1590C1496,1586 1408,1583 1321,1582C1238,1519 1161,1388 1089,1189C1075,1154 1061,1119 1046,1085l-16,-42C969,901 910,759 853,617C815,514 770,413 718,314C681,249 632,190 570,137C508,84 440,45 365,20C324,7 282,0 240,0z" transform="matrix(0.0219727 0 0 -0.0219727 30.6079 0)"/><path d="M689,247C734,247 779,254 826,268C958,314 1069,392 1160,502C1291,660 1356,837 1356,1033C1356,1044 1355,1069 1353,1108C1351,1147 1333,1195 1300,1253C1268,1307 1223,1346 1165,1370C1120,1389 1080,1399 1045,1399C1028,1399 1011,1396 995,1390C990,1389 986,1388 982,1388C976,1388 969,1391 962,1396C951,1403 946,1414 946,1427C946,1435 949,1442 956,1449C970,1463 986,1477 1005,1490C1023,1503 1042,1512 1063,1517C1084,1522 1105,1525 1126,1525C1149,1525 1173,1522 1196,1516C1287,1495 1362,1448 1421,1377C1399,1452 1353,1506 1282,1540C1219,1571 1154,1587 1087,1587C1002,1587 915,1569 826,1533C605,1444 437,1300 320,1103C253,990 220,871 220,744C220,627 255,523 326,432C385,357 459,304 547,272C593,255 640,247 689,247M676,0C593,0 511,18 429,53C347,88 272,140 205,209C69,351 1,519 1,712l1,33C14,936 75,1109 184,1265C293,1420 431,1544 597,1635C688,1687 786,1726 889,1753C950,1768 1011,1776 1072,1776C1225,1776 1353,1732 1457,1643C1531,1580 1575,1498 1589,1399l0,-3C1589,1359 1574,1333 1543,1320C1528,1313 1514,1310 1500,1310C1484,1310 1468,1314 1453,1323C1512,1228 1541,1115 1541,986C1541,775 1477,579 1348,397C1273,289 1181,199 1073,128C964,57 845,14 716,1z" transform="matrix(0.0219727 0 0 -0.0219727 57.085 0)"/><path d="M136,0C112,0 92,11 75,32C58,53 50,76 50,101C50,114 53,127 60,140C66,152 76,162 91,169C150,202 200,243 243,292C285,340 322,393 354,452C415,566 473,682 528,799l-8,0C347,799 181,842 21,927C7,937 0,948 0,961C0,972 4,982 12,991C20,1000 30,1004 42,1004C47,1004 53,1003 60,1000C198,937 342,905 492,905C521,905 551,906 580,909l214,436C831,1416 867,1489 903,1562C919,1594 936,1626 953,1658C970,1690 992,1719 1019,1744C1032,1757 1046,1768 1061,1777C1076,1786 1092,1790 1111,1790l5,1C1129,1791 1143,1789 1158,1786C1172,1782 1186,1779 1199,1776C1254,1759 1291,1723 1310,1668C1323,1627 1330,1583 1330,1538C1330,1501 1327,1465 1320,1428C1313,1391 1305,1357 1294,1325C1255,1208 1192,1107 1105,1023C1018,939 916,878 798,841C780,836 761,831 741,827l-138,-291C555,433 500,336 438,245l42,-3C514,241 548,237 583,229C615,217 648,206 681,197C754,182 827,170 901,162C945,157 991,154 1038,154C1083,154 1127,158 1170,167C1213,176 1252,192 1289,215C1326,240 1354,271 1373,306C1392,341 1401,380 1401,422C1401,437 1400,453 1397,470l-1,7C1396,489 1400,498 1409,504C1417,509 1426,512 1436,512C1450,512 1463,506 1474,495C1505,454 1520,411 1520,366C1520,329 1512,294 1496,259C1479,224 1457,192 1430,164C1380,113 1322,76 1256,55C1189,34 1121,23 1051,23C972,26 894,34 815,47C783,52 751,57 718,62C685,67 653,69 620,69l-36,-1C559,66 534,65 509,65l-102,1C370,66 333,63 297,57C260,51 225,38 190,19l-1,0C183,15 176,11 169,8C158,3 147,0 136,0M804,958C819,963 833,968 846,974C947,1018 1031,1082 1100,1165C1168,1248 1212,1344 1233,1453C1240,1490 1244,1528 1244,1567l-2,41C1241,1621 1239,1635 1236,1648C1232,1661 1224,1671 1213,1680C1199,1690 1188,1695 1180,1695l-1,0C1172,1689 1164,1681 1156,1671C1137,1654 1123,1634 1112,1611l-37,-80l-91,-197z" transform="matrix(0.0219727 0 0 -0.0219727 92.5488 0)"/><path d="M240,0C132,0 54,34 7,103C-19,141 -32,183 -32,230C-31,289 -9,342 35,390C48,402 61,408 76,408C81,408 89,407 100,405C111,402 121,394 130,379C133,374 135,368 135,362C135,351 131,340 122,330C101,303 90,277 90,251C90,236 94,217 101,192C108,167 135,148 181,134C196,131 211,129 226,129C267,129 312,144 359,174C406,203 445,241 476,286C531,367 580,452 621,541C662,629 702,718 739,807C920,1244 1041,1502 1102,1582l-185,2l-197,-1C674,1583 625,1580 573,1574C521,1568 472,1550 427,1519C405,1503 387,1484 373,1462C359,1440 352,1419 352,1399C352,1368 368,1342 399,1323C414,1313 431,1308 449,1308C462,1308 476,1311 491,1316C497,1316 500,1315 500,1312l-2,-5C457,1274 414,1258 367,1258C360,1258 342,1259 312,1262C282,1265 251,1286 218,1327C197,1356 187,1387 187,1420l2,22C189,1446 191,1460 196,1484C201,1507 220,1539 253,1580C286,1620 323,1653 366,1680C439,1723 517,1750 601,1759C668,1766 735,1770 803,1770l46,-1l101,0C1190,1776 1335,1779 1386,1779C1424,1790 1462,1796 1499,1796C1550,1796 1600,1786 1649,1766C1680,1752 1695,1731 1695,1702l-1,-11C1691,1669 1681,1648 1663,1627C1644,1606 1618,1593 1584,1590C1496,1586 1408,1583 1321,1582C1238,1519 1161,1388 1089,1189C1075,1154 1061,1119 1046,1085l-16,-42C969,901 910,759 853,617C815,514 770,413 718,314C681,249 632,190 570,137C508,84 440,45 365,20C324,7 282,0 240,0z" transform="matrix(0.0219727 0 0 -0.0219727 125.332 0)"/><path d="M1323,0C1386,0 1425,5 1438,14C1451,23 1462,39 1469,60C1589,449 1735,818 1908,1169C1939,1234 1970,1297 2002,1356C2033,1415 2067,1467 2103,1514C2138,1560 2178,1597 2222,1624C2266,1651 2316,1664 2373,1664C2416,1664 2455,1652 2492,1629C2529,1605 2555,1566 2572,1512C2577,1497 2585,1487 2594,1480C2603,1473 2614,1470 2625,1470C2641,1470 2656,1476 2669,1488C2682,1500 2688,1516 2687,1535l-2,14C2661,1629 2615,1692 2548,1737C2480,1782 2407,1805 2330,1805C2256,1805 2189,1790 2128,1759C2067,1728 2013,1687 1966,1637C1919,1586 1877,1531 1842,1471C1660,1166 1508,842 1385,500C1340,716 1311,932 1296,1149C1285,1312 1282,1475 1288,1636l0,12C1286,1679 1274,1704 1251,1724C1228,1744 1204,1754 1179,1754C1164,1754 1150,1750 1137,1742C1123,1733 1112,1720 1103,1702C674,815 452,354 437,317C418,276 402,246 388,228C374,209 356,189 334,166C312,143 287,127 259,116C238,109 219,106 202,106C168,106 140,115 119,134C98,152 86,172 85,193C83,212 91,230 109,246C127,261 157,270 199,272C219,273 233,281 242,296C251,311 254,328 253,348C252,365 247,383 238,400C229,417 216,432 201,444C185,455 166,461 144,461C113,461 76,446 33,415C-5,364 -22,308 -17,249C-15,217 -7,186 8,155C23,124 44,97 73,72C101,48 132,30 167,19C201,8 236,2 271,2C333,2 391,18 446,49C487,75 522,108 550,149C577,190 603,232 626,276l28,52C729,462 800,598 867,736C934,874 1000,1013 1065,1152l34,72C1102,1171 1105,1119 1108,1067C1165,670 1236,314 1323,0z" transform="matrix(0.0219727 0 0 -0.0219727 151.809 0)"/></g>
		</g>
		
		
		
		
		<g id="Drum">
			<g id="Layer_8_copy_4">
				
					
				<g transform="matrix(1 0 0 1 183.7684 497.8568)" fill="#ED2024"><path d="M531,1321C474,1321 424,1301 383,1260C344,1220 324,1171 324,1114C324,1046 355,994 416,958C443,943 524,917 658,879C773,844 856,803 908,756C987,683 1026,583 1026,455C1026,329 981,222 891,133C802,44 696,0 572,0l-381,0C158,0 130,12 107,37C82,60 70,88 70,121l0,6C70,160 82,188 107,213C130,236 158,248 191,248l391,0C639,248 688,268 727,307C768,348 789,398 789,455C789,522 758,573 695,610C666,628 586,657 453,698C340,735 256,778 203,825C125,896 86,993 86,1114C86,1240 131,1347 220,1436C309,1525 415,1569 539,1569l270,0C842,1569 870,1557 895,1532C918,1509 930,1481 930,1448l0,-6C930,1409 918,1381 895,1356C870,1333 842,1321 809,1321z" transform="matrix(0.0644531 0 0 -0.0644531 0 0)"/><path d="M225,1563C256,1563 284,1551 309,1528C334,1503 346,1475 346,1442l0,-348C398,1133 477,1153 583,1153C716,1153 830,1105 925,1010C1020,915 1067,801 1067,668l0,-547C1067,87 1055,59 1032,37C1009,12 980,0 946,0l-2,0C911,0 883,12 858,37C835,59 823,87 823,121l0,547C823,735 800,791 753,838C707,884 650,907 583,907C518,907 461,884 413,838C368,791 346,735 346,668l0,-547C346,87 334,59 309,37C284,12 256,0 225,0l-4,0C188,0 160,12 137,37C112,59 100,87 100,121l0,1321C100,1475 112,1503 137,1528C160,1551 188,1563 221,1563z" transform="matrix(0.0644531 0 0 -0.0644531 70.6406 0)"/><path d="M1083,983C1196,870 1253,734 1253,575l0,-454C1253,87 1241,59 1216,37C1191,12 1163,0 1130,0l-2,0C1095,0 1067,12 1042,37C1019,59 1007,87 1007,121C931,40 820,0 675,0C517,0 382,57 270,170C157,282 100,417 100,575C100,734 157,870 270,983C382,1096 517,1153 675,1153C834,1153 970,1096 1083,983M442,811C378,746 346,667 346,575C346,484 378,406 442,342C506,278 584,246 675,246C768,246 847,278 911,342C975,406 1007,484 1007,575C1007,667 975,746 911,811C846,875 767,907 675,907C584,907 506,875 442,811z" transform="matrix(0.0644531 0 0 -0.0644531 145.857 0)"/><path d="M598,1153C632,1153 661,1141 684,1116C707,1091 718,1063 718,1030l0,-2C718,995 707,967 684,942C661,919 632,907 598,907l-58,0C485,907 439,888 401,850C364,812 346,766 346,711l0,-590C346,87 334,59 309,37C284,12 256,0 225,0l-4,0C188,0 160,12 137,37C112,59 100,87 100,121l0,590C101,834 144,938 229,1024C315,1110 419,1153 540,1153z" transform="matrix(0.0644531 0 0 -0.0644531 232.998 0)"/><path d="M262,1153C297,1153 325,1141 346,1116C371,1091 383,1063 383,1030l0,-909C383,87 371,59 346,37C325,12 297,0 262,0l-2,0C226,0 197,12 174,37C149,59 137,87 137,121l0,909C137,1063 149,1091 174,1116C197,1141 226,1153 260,1153M162,1323C135,1350 121,1383 121,1421C121,1460 135,1493 162,1520C189,1547 222,1561 260,1561C299,1561 332,1547 359,1520C388,1494 402,1461 402,1421C402,1383 388,1350 359,1323C332,1296 299,1282 260,1282C222,1282 189,1296 162,1323z" transform="matrix(0.0644531 0 0 -0.0644531 279.984 0)"/><path d="M346,121C346,87 334,59 309,37C284,12 256,0 225,0l-4,0C188,0 160,12 137,37C112,59 100,87 100,121l0,547C100,801 147,915 241,1010C337,1105 451,1153 583,1153C716,1153 830,1105 925,1010C1020,915 1067,801 1067,668l0,-547C1067,87 1055,59 1032,37C1009,12 980,0 946,0l-2,0C911,0 883,12 858,37C835,59 823,87 823,121l0,547C823,735 800,791 753,838C707,884 650,907 583,907C518,907 461,884 413,838C368,791 346,735 346,668z" transform="matrix(0.0644531 0 0 -0.0644531 313.5 0)"/><path d="M645,-166C728,-166 804,-133 873,-68C942,-1 977,77 977,166C901,55 790,0 645,0C487,0 352,57 240,170C127,282 70,417 70,575C70,734 127,870 240,983C352,1096 487,1153 645,1153C804,1153 939,1096 1051,983C1164,872 1222,737 1223,578l0,-412C1223,9 1162,-128 1041,-244C925,-356 793,-412 645,-412C422,-412 254,-325 142,-150C128,-129 121,-108 121,-86C121,-73 123,-59 127,-45C140,-8 164,17 201,31l4,2C222,38 237,41 252,41C291,41 322,23 346,-14C413,-115 513,-166 645,-166M977,582C976,672 943,748 879,811C815,875 737,907 645,907C554,907 476,875 412,811C348,746 316,667 316,575C316,484 348,406 412,342C476,278 554,246 645,246C738,246 817,278 881,342C945,406 977,484 977,575z" transform="matrix(0.0644531 0 0 -0.0644531 388.717 0)"/></g>
				<polyline fill="#ED2024" points="186.43,555 281.43,555 281.43,566.14 186.43,566.14 186.43,555 				"/>
				<polyline fill="#ED2024" points="557.71,555 652.71,555 652.71,566.14 557.71,566.14 557.71,555 				"/>
				<g transform="matrix(1 0 0 1 336.1745 566.1426)" fill="#ED2024"><path d="M1187,0C1093,0 1000,16 908,47C816,78 730,119 650,170l-20,15C600,151 569,121 536,94C503,67 467,45 430,29C392,13 352,5 309,5C277,5 243,11 208,22C172,33 138,48 107,69C76,90 50,115 30,146C10,176 0,210 0,249C0,262 1,276 4,291C14,331 32,363 57,387C82,411 113,428 148,439C183,449 219,454 255,454C278,453 299,452 318,449C337,446 355,443 372,439C389,434 405,429 422,422C439,415 456,407 474,398C491,389 510,378 530,366l1,0C690,576 845,793 995,1016C969,989 939,969 906,956C872,943 837,936 801,936C762,936 724,944 687,960C628,989 585,1030 558,1084C531,1137 517,1195 517,1257C522,1368 555,1464 615,1544C674,1623 751,1684 844,1727C937,1770 1036,1791 1139,1791C1209,1791 1278,1782 1347,1763C1415,1744 1480,1718 1543,1684C1614,1723 1690,1742 1772,1742C1885,1742 1992,1709 2092,1642C2106,1631 2113,1618 2113,1604C2113,1593 2109,1584 2102,1575C2095,1566 2085,1561 2073,1561C2066,1561 2060,1563 2053,1566C1980,1601 1904,1618 1825,1618C1775,1618 1726,1611 1678,1596C1787,1512 1872,1409 1932,1288C1991,1167 2021,1039 2021,905C2021,793 1999,683 1954,575C1909,467 1848,370 1771,284C1694,198 1605,129 1505,78C1404,26 1298,0 1187,0M1038,1078l62,90C1141,1229 1182,1290 1224,1352C1265,1414 1310,1474 1357,1531C1290,1554 1218,1566 1143,1566C1064,1566 989,1548 918,1513C847,1477 792,1423 753,1351C730,1310 718,1264 716,1213C716,1194 718,1174 723,1153C728,1131 737,1113 752,1100C770,1087 791,1080 816,1080C845,1080 871,1088 895,1103C917,1121 932,1144 940,1171C948,1198 952,1225 952,1252C952,1270 957,1284 968,1293C979,1302 991,1307 1004,1307C1016,1307 1028,1303 1039,1295C1050,1287 1057,1275 1060,1258C1063,1239 1065,1219 1065,1200C1065,1158 1056,1117 1038,1078M313,207C340,207 366,215 393,231C420,246 444,266 466,291C461,295 455,298 450,301C427,315 400,329 369,342C338,355 307,361 278,361C253,361 229,353 206,338C183,323 171,305 171,284C171,269 180,255 198,244C215,232 235,223 258,217C280,210 298,207 313,207M1188,109C1279,109 1366,130 1449,173C1531,216 1603,273 1666,344C1729,415 1778,494 1815,583C1851,672 1869,762 1869,854C1869,979 1837,1097 1772,1206C1707,1315 1614,1403 1495,1471C1446,1412 1402,1351 1364,1286C1271,1143 1179,998 1088,853C997,708 903,564 806,423C772,372 735,319 695,264C768,219 847,182 934,153C1021,124 1105,109 1188,109z" transform="matrix(0.0219727 0 0 -0.0219727 0 0)"/><path d="M1700,204l0,1C1701,205 1702,205 1703,205C1704,205 1705,205 1706,206C1707,207 1708,207 1709,207l1,0l-3,-2C1722,208 1735,214 1746,223C1767,240 1784,260 1797,285C1810,310 1820,335 1828,361C1834,378 1844,392 1857,401C1870,410 1884,414 1899,414C1917,414 1934,408 1949,397C1964,385 1971,369 1971,349C1971,342 1970,336 1968,329C1951,256 1920,193 1877,139C1834,84 1777,43 1706,16C1677,5 1647,0 1617,0C1552,0 1492,22 1438,66C1383,109 1354,167 1351,239l0,4C1351,276 1357,308 1369,339C1381,369 1394,399 1409,428l21,43C1443,499 1449,527 1449,555C1449,580 1444,606 1434,631C1401,712 1344,775 1263,821C1226,828 1190,841 1153,858C1130,873 1119,890 1119,911C1119,928 1125,943 1138,957C1150,971 1165,978 1184,978l12,-1C1235,971 1271,961 1306,948C1317,947 1329,946 1341,946C1407,946 1470,962 1530,994C1628,1045 1710,1115 1775,1204C1802,1242 1815,1280 1815,1319C1815,1354 1803,1388 1779,1421C1752,1456 1719,1487 1680,1513C1641,1538 1602,1560 1561,1579C1416,1647 1265,1681 1109,1681C1067,1681 1025,1678 982,1673C895,1664 805,1641 713,1603C621,1565 552,1507 505,1428C489,1396 481,1363 481,1330C481,1279 500,1233 538,1192C581,1153 628,1133 681,1133C708,1133 732,1140 754,1153C762,1158 770,1160 777,1160C786,1160 795,1156 802,1148C809,1140 813,1131 813,1120C813,1109 808,1098 797,1087C755,1057 710,1042 663,1042C599,1042 540,1063 485,1104C450,1131 423,1165 406,1204C388,1243 379,1284 379,1327C379,1364 386,1401 400,1437C429,1508 476,1567 540,1614C604,1660 675,1696 754,1722C832,1747 906,1765 977,1774C1031,1781 1086,1784 1141,1784C1240,1784 1339,1773 1437,1750C1535,1727 1627,1692 1714,1646C1765,1619 1812,1585 1855,1544C1897,1503 1927,1455 1946,1400C1954,1373 1958,1346 1958,1319C1958,1271 1947,1225 1926,1182C1904,1139 1876,1099 1842,1063C1743,952 1624,875 1486,831C1497,820 1507,809 1516,797C1578,720 1609,636 1609,546C1609,519 1606,492 1599,465C1594,449 1588,432 1580,414C1573,396 1566,378 1560,359C1554,340 1551,322 1551,305l3,-21C1555,276 1558,268 1563,261l2,-5l7,-9l-4,6l12,-10l19,-11C1600,232 1601,232 1602,232C1603,231 1603,230 1604,229l3,0l18,-5C1632,221 1639,219 1644,217C1652,214 1660,211 1669,209C1677,207 1687,205 1700,204M314,1l-34,2C187,12 112,53 53,126C18,172 0,221 0,273C0,303 8,332 23,361C33,378 45,391 60,400C75,408 90,412 105,412C130,412 154,402 175,383C196,364 207,339 207,309l-2,-15l0,-16l2,-2C208,269 213,262 221,253C236,236 257,226 282,223l24,-2C357,221 403,240 443,277C492,324 535,377 572,438C609,499 642,559 672,620C675,625 678,631 681,638C710,693 737,748 764,803C803,886 845,967 888,1046C951,1165 1028,1274 1120,1373C1168,1425 1221,1470 1279,1508l19,11C1323,1535 1351,1550 1381,1565C1410,1580 1439,1587 1467,1587l3,0C1486,1586 1500,1580 1511,1570C1522,1559 1527,1547 1527,1532C1527,1524 1525,1516 1520,1508C1503,1482 1482,1459 1457,1440C1446,1432 1436,1423 1426,1413C1397,1385 1369,1356 1341,1327C1284,1268 1233,1205 1188,1137C1097,998 1019,853 952,701C884,548 804,401 712,260C680,213 644,171 605,132C566,93 522,61 474,37C426,13 373,1 314,1z" transform="matrix(0.0219727 0 0 -0.0219727 44.6265 0)"/><path d="M300,865C317,866 333,869 350,873C449,895 538,939 615,1004C682,1061 744,1132 800,1215C855,1298 889,1384 900,1473l1,25C901,1537 891,1577 872,1620C852,1662 817,1688 767,1697l-10,0C724,1697 694,1684 668,1658C642,1632 621,1604 604,1573C559,1497 518,1417 482,1334C446,1250 412,1166 380,1083l-11,-28C344,993 321,930 300,865M410,0C336,0 268,18 206,54C143,90 94,145 59,220C27,292 11,369 11,452C11,527 19,602 36,677l23,95C-20,801 -82,849 -128,916C-179,994 -204,1076 -204,1163C-204,1164 -204,1186 -204,1231C-204,1275 -173,1334 -112,1407C-109,1410 -105,1412 -102,1412C-99,1412 -96,1411 -93,1409C-90,1406 -88,1403 -88,1399C-88,1397 -89,1395 -90,1392C-124,1340 -141,1286 -141,1229C-141,1223 -140,1203 -137,1168C-135,1133 -116,1088 -80,1034C-45,979 2,937 60,907l35,-15C138,1021 187,1148 244,1271l30,69C314,1438 362,1531 417,1618C453,1671 497,1718 549,1757C601,1796 657,1820 717,1827l24,1C793,1828 846,1809 899,1771C963,1721 1002,1661 1017,1592C1023,1562 1026,1532 1026,1501C1026,1461 1019,1412 1004,1355C989,1298 963,1238 927,1176C872,1079 802,992 719,916C636,839 539,786 430,755C379,742 325,735 268,735l-8,0C234,638 221,551 221,474C221,436 226,396 237,354C247,311 268,276 299,247C324,223 358,211 401,211C411,211 421,212 432,213C489,221 540,243 584,280C628,316 667,359 702,408C737,457 768,505 795,553l17,27C917,755 1011,935 1096,1120C1181,1305 1262,1491 1340,1678C1360,1719 1388,1740 1425,1740C1426,1740 1436,1740 1456,1739C1475,1738 1498,1722 1523,1691C1538,1672 1546,1650 1546,1625C1546,1610 1543,1593 1537,1576C1476,1433 1414,1290 1350,1147C1286,1004 1218,864 1145,726C1074,592 997,462 913,336C875,280 833,227 787,177C741,127 688,86 627,54C556,18 484,0 410,0z" transform="matrix(0.0219727 0 0 -0.0219727 88.0225 0)"/><path d="M1062,-41l-2,0C1037,-41 1015,-32 995,-15C975,2 965,25 965,52C970,93 977,132 988,169C998,206 1008,244 1017,283C1030,350 1043,416 1057,483C1084,618 1112,754 1141,890l88,409C1230,1310 1232,1321 1235,1332C1112,1114 995,901 883,694l-125,-229C724,396 689,328 652,259C616,194 569,139 512,95C455,51 389,27 314,22l-22,0C245,23 199,34 155,55C110,76 73,106 44,144C15,182 0,226 0,277C0,305 8,330 25,351C41,372 63,385 92,389l10,0C125,389 146,381 165,364C183,347 193,327 194,302C194,284 203,268 220,254C241,235 265,222 293,217C306,215 320,214 333,214C386,219 436,240 482,275C514,299 543,328 568,361C593,394 615,427 635,462C683,545 731,629 779,712l290,508l135,245C1228,1507 1253,1550 1279,1593C1305,1636 1327,1680 1345,1725C1355,1744 1370,1754 1390,1755l3,0C1406,1755 1417,1751 1427,1744C1437,1737 1442,1726 1442,1713l0,-4C1440,1636 1434,1564 1424,1492C1413,1424 1401,1357 1387,1291C1332,994 1278,718 1223,462C1248,499 1273,537 1297,576C1393,735 1487,897 1578,1061C1618,1131 1658,1202 1697,1274C1736,1346 1778,1416 1823,1484C1863,1542 1908,1593 1959,1637C2009,1681 2064,1721 2123,1756C2136,1764 2150,1768 2163,1769l2,0C2184,1769 2201,1762 2215,1749C2229,1736 2236,1718 2236,1697l-1,-13C2211,1539 2180,1395 2142,1252C2108,1111 2073,970 2038,829l-106,-419C1924,380 1915,349 1905,317C1894,284 1889,253 1889,224C1889,215 1889,210 1890,211C1890,212 1890,209 1890,204l2,0l0,3l1,-2C1910,220 1930,228 1953,229l6,0C1972,229 1984,226 1996,220C2034,197 2053,167 2053,129C2053,115 2049,100 2040,85C2005,30 1957,1 1897,-2l-13,0C1870,-2 1856,0 1843,4C1755,28 1703,85 1688,175l-2,34C1686,242 1691,276 1700,309C1709,342 1717,375 1726,407C1801,686 1871,949 1937,1194C1971,1322 2007,1450 2046,1577l-52,-42C1949,1488 1910,1438 1876,1384C1789,1247 1707,1107 1628,964C1539,810 1453,655 1370,499C1287,339 1208,176 1134,11C1117,-23 1093,-40 1062,-41M1906,199l-7,2z" transform="matrix(0.0219727 0 0 -0.0219727 118.784 0)"/></g>
			</g>
			<g id="Layer_14">
				<path fill="#ED2024" d="M187.29,378.51c-0.05-0.97-0.11-1.75-0.11-2.53c0-111.28-0.01-222.57,0.01-333.85
					c0-5.25,1.01-10.34,3.04-15.19c4.14-9.87,11.72-15.26,22.19-16.78c9.01-1.31,17.66,0.51,26.19,3.09
					c15.46,4.67,29.04,12.77,41.42,22.99c43.52,35.91,87.03,71.85,130.55,107.76c3.32,2.74,6.74,5.38,10.27,8.19
					c0.8-0.67,1.53-1.25,2.24-1.87c21.19-18.51,42.37-37.03,63.56-55.54c19.14-16.72,38.23-33.5,57.44-50.14
					c11.9-10.3,24.81-19.1,39.26-25.49c9.32-4.12,18.95-7.24,29.05-8.71c5.89-0.86,11.78-0.86,17.59,0.72
					c7.41,2.01,12.95,6.41,16.6,13.16c3.07,5.67,4.28,11.84,4.73,18.18c0.2,2.79,0.23,5.59,0.24,8.38
					c0.09,20.22,0.19,40.44,0.22,60.66c0.01,8.63-0.13,17.26-0.22,25.89c-0.03,2.74-1.2,3.52-3.82,2.49
					c-8.96-3.51-18.2-6-27.72-7.32c-9.22-1.28-18.46-1.44-27.73-0.46c-22.27,2.35-42.52,10.48-61.71,21.6
					c-15.03,8.71-28.98,19.02-42.85,29.44c-12.72,9.55-25.48,19.03-38.27,28.49c-3.01,2.22-6.17,4.23-9.75,6.67
					c2.57,0.63,4.74,0.66,6.84,1.08c2.15,0.43,4.29,0.93,6.77,1.48c-1.27,1.15-2.25,2.04-3.36,3.04c2.91,1.07,5.9,1.28,8.79,3.09
					c-2.96-0.79-5.67-1.08-7.95-2.22c-4.67-2.32-9.7-2.05-14.59-2.74c-0.38-0.05-0.75-0.14-1.62-0.3c1.74-1.18,3.12-2.12,5.01-3.39
					c-3.79-0.34-7-0.77-10.22-0.87c-4.87-0.15-9.75-0.14-14.62-0.06c-6.72,0.11-13.37,0.91-19.92,2.39
					c-1.16,0.26-2.28,0.72-3.36,1.23c-1.58,0.74-2.8,1.85-3.09,4c-1.32-0.84-2.55-1.53-3.67-2.37c-7.36-5.5-14.7-11.04-21.97-16.51
					c-0.27-1.69-0.52-3.28-0.81-5.12c0.92,0,1.62-0.05,2.32,0.01c4.84,0.44,9.68,1.07,14.53,1.32c7.97,0.41,15.94,1.18,23.93,0.31
					c1.9-0.21,3.81-0.32,5.7-0.63c1.79-0.3,3.67-0.58,4.68-2.58c-0.54-1.45-1.7-2.31-3.05-2.79c-4.04-1.46-8.06-3.07-12.21-4.15
					c-5.78-1.5-11.66-2.64-17.52-3.81c-3.2-0.64-6.45-1.03-9.68-1.54c-0.7-0.11-1.4-0.24-2.15-0.37c-0.3-0.88-0.57-1.67-0.87-2.55
					c0.42-0.5,0.87-1.03,1.47-1.73c-0.53-0.34-0.93-0.79-1.39-0.86c-1.03-0.16-2,0.01-3.08-0.61c-0.64-0.37-1.98,0.05-3.08-0.23
					c-1.5-0.39-1.94,0.55-1.21,2.26c-0.67,0.81-1.32,1.59-1.94,2.34c-8.27-0.63-16.52-1.25-24.67-1.87
					c-0.16,0.35-0.2,0.42-0.21,0.49c-0.01,0.07-0.01,0.16,0.03,0.21c0.16,0.17,0.33,0.35,0.52,0.5c6.25,4.72,12.5,9.43,18.99,14.32
					c-1.17,0-2.09,0.12-2.97-0.02c-10.63-1.74-21.26-3.54-31.58-6.69c-2.51-0.77-4.93-1.84-7.34-2.88c-1.09-0.47-2.39-1.2-2.3-2.51
					c0.11-1.53,1.71-1.87,2.9-2.05c3.23-0.49,6.48-0.89,9.74-1.06c3.5-0.18,7.02-0.04,10.67-0.04c-0.11-1.18-1.03-1.47-1.65-1.94
					c-15.06-11.35-30.13-22.69-45.23-34c-3.26-2.44-6.63-4.73-9.97-7.07c-0.44-0.31-0.94-0.53-1.66-0.93
					c-0.08,0.81-0.2,1.4-0.2,1.99c-0.02,3.6-0.01,7.2-0.01,10.79c-0.01,40.69-0.04,81.38-0.04,122.08c0,13.11,0.08,26.22,0.16,39.33
					c0.03,4.87,0.31,9.75,0.17,14.62c-0.1,3.41-0.48,6.86-1.16,10.21c-1.74,8.51-6.41,15.21-13.27,20.45
					c-5.13,3.91-10.91,6.63-16.78,9.16c-12.36,5.31-25.24,8.54-38.65,9.57c-4.62,0.35-9.25,0.42-13.88,0.59
					C189.12,378.72,188.26,378.58,187.29,378.51z"/>
				<path fill="#ED2024" d="M471.11,232.75c-0.76,0.55-1.59,1.02-2.27,1.65c-3.24,2.95-6.43,5.95-9.76,9.03
					c0.44-1.63,0.83-3.08,1.24-4.62c2.14-1.08,2.35-1.42,2.27-3.98c-0.03-0.92-0.03-0.92-3.01-3.76c1.58-2.69,1.5-2.69,1.54-5.22
					c0.03-1.6-0.69-2.56-2.04-3.18c-0.8-0.37-1.62-0.68-2.44-0.99c-0.72-0.27-1.46-0.5-2.59-1.36c0.43-0.2,0.91-0.34,1.27-0.62
					c15.2-12.09,30.15-24.51,46.04-35.69c20.62-14.5,42.71-26.25,66.6-34.42c12.02-4.11,24.39-6.48,37.16-6
					c13.76,0.51,26.47,4.28,37.31,13.07c2.96,2.4,5.43,5.39,8.11,8.12c1,1.02,1.33,2.25,1.31,3.71c-0.08,4.64-0.03,9.27-0.03,13.91
					c0,63.96,0,127.92,0,191.88c0,1.02,0,2.04,0,3.34c-19.94-0.04-39.29-1.8-57.81-9.73c0.21-0.86,0.33-1.61-0.52-2.28
					c-1.56-1.23-2.88-2.78-4.46-3.99c-1.25-0.95-2.8-1.49-4.1-2.39c-2.62-1.82-5.16-3.77-7.74-5.66c-1.73-1.27-3.47-2.53-5.31-3.88
					c0.39,1.61,0.44,1.73,2.37,3.99c0.98,1.15,2.02,2.26,2.89,3.63c-0.56-0.34-1.13-0.65-1.66-1.02c-1.31-0.92-2.61-1.85-3.88-2.82
					c-0.79-0.59-1.48-0.6-2.42-0.2c-5.99,2.52-10.46,6.95-14.8,11.55c-0.61,0.64-1,1.35-0.81,2.37c0.2,1.08,0.1,2.23-1.28,3.07
					c-1.07-1.76-1.66-3.63-1.97-5.56c-0.07-0.42,0.4-1,0.76-1.39c0.8-0.88,1.69-1.68,2.71-2.68c-1.42-0.9-1.06-3.32-3.49-3.25
					c0-4.78,0-9.47,0-14.36c-2.42,0.18-3.57,2.33-5.46,2.99c-1.76-1.87-1.74-2.33,0.07-3.7c1.59-1.21,3.13-2.5,5.52-2.52
					c-0.35-4.32,0.69-8.52-0.71-12.69c-0.41-1.24-0.2-2.69-0.23-4.04c-0.01-0.3,0.08-0.75,0.29-0.87c1.75-1.04,1.3-2.73,1.3-4.27
					c-0.01-1.99-0.07-3.98-0.14-5.97c-0.02-0.46-0.19-0.91-0.31-1.44c-0.85-0.09-1.64-0.11-2.41-0.26c-2.48-0.5-3.32-2.05-2.68-4.49
					c0.34-1.28,0.38-2.64,0.59-4.21c-1.61-0.15-2.96-0.27-4.72-0.43c0.72-0.77,1.12-1.2,1.49-1.6c-0.09-0.21-0.1-0.42-0.21-0.49
					c-3.77-2.48-6.89-5.7-10.08-8.83c-1.37-1.34-2.9-2.14-4.82-2.38c-1.32-0.17-2.6-0.72-3.89-1.1c-0.46-0.13-0.94-0.4-1.38-0.34
					c-2.37,0.28-4.05-1-5.82-2.28c-1.87-1.35-3.89-2.51-5.94-3.81c0-1.16,0-2.39,0-3.77c-0.75-0.07-1.34-0.13-2.08-0.21
					c-0.23,0.86-0.43,1.58-0.67,2.48c-0.4-0.2-0.82-0.27-0.89-0.46c-0.58-1.67-1.6-3.16-1.44-5.12c0.21-2.45,0.05-4.93,0.05-7.59
					c4.68-0.3,9.2-0.47,13.69-0.9c4.46-0.42,8.9-1.08,13.93-1.71c-1.69,1.77-1.6,3.38-1.18,5.04c0.21,0.82,0.72,1.35,1.52,1.15
					c0.5-0.13,1.13-0.62,1.29-1.09c0.48-1.42,0.96-2.87-0.56-4.13c-0.72-0.6-0.38-1.4,0.43-1.7c1.18-0.44,2.42-0.99,3.64-1
					c7.03-0.08,14.07-0.03,21.1-0.01c0.63,0,1.26,0.08,1.96,0.13c0.44,1.15,0.56,2.09-0.26,3.14c-1.03,1.32-0.29,2.78,0.15,4.1
					c0.31,0.91,1.86,0.83,2.34-0.12c0.68-1.32,0.83-2.69,0.14-4.12c-0.38-0.8-0.58-1.68-0.94-2.79c0.98-0.1,1.56-0.16,2.21-0.22
					c0,5.98,0,11.77,0,17.98c-0.85-0.32-1.74-0.43-1.81-0.72c-0.16-0.71-0.22-1.75,0.19-2.22c1.15-1.35,0.79-2.7,0.29-4.02
					c-0.17-0.47-0.9-0.98-1.4-1.01c-0.82-0.05-1.24,0.63-1.22,1.46c0.03,1.23-0.45,2.48,0.58,3.65c0.41,0.47,0.23,1.47,0.34,2.49
					c-2.5,0.4-4.8,0.13-7.08,0.16c-2.32,0.04-4.64,0.01-6.95,0.01c-2.32,0-4.64,0-6.95,0c-2.29,0-4.59,0-6.85,0
					c-0.41-1.33-0.56-2.2,0.37-3.12c0.79-0.78,0.66-3.11,0.04-4.07c-0.54-0.83-1.7-0.92-2.17-0.02c-0.67,1.28-1.17,2.76-0.17,4.05
					c0.77,0.99,0.61,1.88,0.36,3.16c-4.92,0-9.84,0-14.75,0c0,0.16-0.01,0.32-0.01,0.47c0.57,0.05,1.14,0.14,1.72,0.15
					c3.68,0.02,7.35,0.01,11.03,0.02c1.11,0,2.35-0.26,2.64,1.69c0.7-1.71,1.86-1.7,3.08-1.7c7.83,0.02,15.67,0.01,23.5,0.02
					c1.04,0,2.22-0.26,2.34,1.38c1.09-0.26,1.3-2.04,2.83-1.07c0,1,0,2.16,0,3.65c-14.54,0.04-28.95,0.09-43.36,0.13
					c-0.03,0.16-0.05,0.33-0.08,0.49c0.54,0.18,1.07,0.43,1.62,0.52c5.59,0.91,11.22,1.59,16.77,2.72
					c5.91,1.21,11.69,0.94,17.51-0.35c2.4-0.53,4.82-0.94,7.46-1.45c0.07,0.92,0.12,1.59,0.18,2.39c-2.42,0.38-3.55,2.21-4.79,3.84
					c-1.69,2.23-3.3,4.5-5.79,5.96c-0.46,0.27-0.77,0.78-1.24,1.28c0.41,0.52,0.78,0.99,1.43,1.8c-1.55,0.14-2.84,0.25-4.39,0.39
					c-0.07,0.6-0.15,1.25-0.27,2.18c0.99,0.05,1.76,0.03,2.52,0.13c1.02,0.14,2.09,0.21,3.01,0.61c2.27,0.99,2.65,3.24,0.85,4.95
					c-0.61,0.58-1.09,1.06-1.08,1.98c0.04,3.27,0.02,6.54,0.02,9.78c0.54,0.32,0.96,0.54,1.33,0.81c1.47,1.07,1.48,1.1,3.04-0.08
					c0.61-0.47,1.16-0.48,1.71,0.02c0.76,0.69,0.87,2.85,0.14,3.57c-0.59,0.58-1.21,0.51-1.9-0.01c-1.83-1.4-2.61-1.08-3.15,1.22
					c-1,4.26-0.51,8.56-0.5,12.95c4.15,0.81,6.77,3.92,9.97,6.1c0.97,0.66,1.84,1.25,3.02,0.65c0.6,0.9,1.13,1.68,1.77,2.63
					c1.14-0.99,2.19-1.9,3.39-2.94c0.74,0.44,1.49,0.87,2.22,1.32c4.63,2.84,9.44,5.44,13.82,8.62c2.43,1.76,4.78,2.23,7.54,2.09
					c2.23-0.12,4.6,0.36,6.67-0.23c1.97-0.56,3.63-2.18,5.43-3.33c3.77-2.39,7.55-4.78,11.44-7.24c0.53,0.49,1.03,0.86,1.43,1.32
					c5,5.71,9.98,11.44,14.97,17.16c0.83,0.96,1.41,1.8,1.13,3.36c-0.26,1.46,0.33,3.15,0.83,4.65c0.2,0.59,1.12,1.1,1.82,1.34
					c2.72,0.94,5.46,1.07,8.25-0.26c0-0.4,0.18-0.99-0.03-1.29c-1.29-1.82-2.34-4.05-4.09-5.22c-2.29-1.54-3.53-3.79-5.23-5.72
					c-11.2-12.7-22.36-25.42-33.48-38.18c-1.11-1.28-2.2-2.3-4.14-1.96c-0.13-0.65-0.32-1.16-0.32-1.68
					c-0.02-7.68-0.07-15.35,0.02-23.03c0.02-2.14,0.43-4.28,0.73-6.42c0.26-1.86,0.21-3.61-0.85-5.26
					c-0.31-0.49-0.37-1.21-0.37-1.82c-0.02-8.55-0.03-17.11,0-25.66c0-1.11,0.31-2.22,0.33-3.33c0.02-1.27,0.21-2.69-0.27-3.77
					c-0.82-1.84-0.76-3.73-0.78-5.58c-0.05-5.35,0.04-10.7,0.21-16.05c0.04-1.11,0.64-2.2,1.07-3.58c1.4,1.18,2.62,2.18,3.81,3.21
					c2.29,2,4.53,4.05,6.84,6.01c1.67,1.41,2.18,1.35,4.07-0.23c-3.9-4.12-8.54-7.39-12.57-11.25c0.77-3.55-0.91-5.92-4.7-6
					c-2.08-0.05-3.43-0.9-4.82-2.12c-2.88-2.53-5.86-4.95-8.69-7.54c-1.57-1.44-2.96-3.09-4.35-4.71c-0.3-0.35-0.39-1.01-0.36-1.51
					c0.2-2.86-0.42-3.86-3.14-4.76c-0.68-0.23-1.43-0.28-2.07-0.57c-0.43-0.2-0.72-0.68-1.41-1.38c1.12-0.24,1.77-0.45,2.44-0.51
					c9.85-0.95,19.62-2.41,29.3-4.43c3.27-0.68,6.5-1.56,9.7-2.52c1.27-0.38,2.48-1.1,3.58-1.87c1.02-0.71,0.96-1.48-0.15-1.99
					c-1.14-0.53-2.39-0.98-3.62-1.11c-2.93-0.33-5.88-0.59-8.83-0.62c-5.51-0.06-11.03-0.02-16.54,0.14
					c-3.74,0.11-7.47,0.54-11.21,0.77c-1.27,0.08-2.54,0.01-3.82,0.01c-0.61-0.95-1.23-1.91-1.99-3.09
					c0.07-0.12,0.31-0.43,0.43-0.79c0.25-0.76-0.08-1.41-0.84-1.34c-1.58,0.16-3.18-0.59-4.81,0.58c-0.81,0.58-2.49,0.49-3.55,0.1
					c-5.3-1.96-10.53-1.35-15.78,0.03c-6.77,1.78-13.02,4.8-19.09,8.2c-11.33,6.34-21.79,13.95-31.95,22
					c-4.07,3.22-8.05,6.57-12.06,9.87c-0.54,0.44-1.03,0.94-1.95,1.8c3.33-0.33,6.13-0.65,8.93-0.89c6.92-0.59,13.84-1.1,20.8-0.61
					c5.74,0.4,11.47,0.79,17.09,2.13c1.47,0.35,2.91,0.84,4.33,1.36c1.69,0.62,2.47,1.94,2.52,3.71c0.03,0.96-0.04,1.92,0.03,2.88
					c0.04,0.61,0.13,1.27,0.4,1.81c1.34,2.61,1.01,3.9-1.51,5.47c-0.26,0.16-0.49,0.38-0.74,0.57c0.14,2.84,0.29,5.61,0.43,8.41
					c0.57,0.32,1.05,0.58,1.53,0.86c1.61,0.97,2.44,3.15,1.41,4.72c-0.66,1.02-0.58,1.91-0.55,2.92c0.02,0.64,0.02,1.28,0.02,1.92
					c0,2.87-0.55,3.89-3.35,4.77c-2.88,0.91-5.84,1.66-8.82,2.15c-10.13,1.66-20.36,1.84-30.59,1.52
					c-5.57-0.17-11.15-0.72-16.62-1.96c-1.47-0.33-2.93-0.8-4.32-1.39c-1.72-0.73-2.1-1.61-1.96-3.41c0.08-1.01,0.5-1.67,1.55-1.8
					c0.71-0.09,1.43-0.17,2.14-0.23c1.14-0.1,2.17-0.25,2.67-1.59c0.17-0.44,0.94-0.87,1.48-0.93c6.1-0.72,12.21-1.36,18.31-2.06
					c0.99-0.11,1.72,0.14,2.12,0.81c1-0.37,1.91-0.97,2.83-0.99c7.6-0.2,15.18,0.05,22.72,1.08c1.66,0.23,1.66,0.26,2.81,1.59
					c0.73-1.22,1.75-1.01,2.88-0.65c1.31,0.42,2.67,0.7,4.07,0.83c-1.76-1.65-4.12-1.68-6.32-2.37c-0.11-1.06-0.18-1.95,0.3-3.01
					c0.45-0.99,0.5-2.33,0.25-3.4c-0.15-0.64-1.16-1.23-1.91-1.53c-0.86-0.35-1.6,0.13-1.71,1.11c-0.13,1.1-0.13,2.22-0.18,3.23
					c1.82,1.31,1.82,1.31,1.66,3.01c-8.65-0.35-17.3-0.7-26.15-1.06c-0.35-0.99-0.84-1.98,0.58-3.08c1.19-0.92,0.44-4.12-0.93-4.84
					c-0.94-0.49-1.72-0.17-2.3,0.62c-0.85,1.17-0.67,3.37,0.4,4.53c0.83,0.91,0.59,1.88,0.4,2.83c-6.93,0.75-13.77,1.48-20.61,2.22
					c1.13-0.82,2-1.74,1.71-3.26c-0.07-0.38-0.19-1.01-0.4-1.06c-1.79-0.42-1.7-2.06-2.26-3.28c-0.1-0.22-0.23-0.42-0.4-0.73
					c0.91-1.48,1.93-3.03,0.76-5.31c-0.37,0.71-0.68,1.05-0.74,1.44c-0.18,1.09-0.12,2.2-1.14,3.03c-0.29,0.23-0.3,1.05-0.16,1.52
					c0.31,1.1,0.79,2.16,1.3,3.49c0.36,0.15,1.01,0.42,1.98,0.81c-0.28,0.54-0.41,1.29-0.81,1.47c-1.23,0.56-1.45,1.58-1.66,2.71
					c-0.34,1.86-0.41,1.9-2.32,1.96c-0.95,0.03-1.91,0.01-2.94,0.01c-0.28-0.57-0.55-1.12-0.87-1.77c-1.12,0-2.28,0-3.59,0
					c0,3.72,0,7.27,0,10.91c3.03,0.68,4,3.12,5.19,5.71c-5.63,0-11.01,0-16.75,0c1.37-2.5,2.17-5.16,5.56-5.57
					c0-3.65,0-7.21,0-11.05c-1.1-0.05-2.15-0.1-3.22-0.15c-0.32,0.75-0.56,1.31-0.82,1.92c-1.61,0-3.17,0-4.71,0
					c-0.55-1.62-1.04-3.09-1.51-4.5c1.8-1.9,3.67-3.86,5.56-5.85c0.4,0.2,0.81,0.27,0.92,0.49c0.81,1.59,2.26,1.82,3.79,1.86
					c1.44,0.04,2.88-0.01,4.32,0.02c2.66,0.06,5.28,0.07,6.72-2.92c-0.44-1.53-0.93-3.25-1.48-5.18c-2.26-1.41-2.51-2.23-1.6-5.86
					c0.75-0.22,1.54-0.35,2.24-0.69c0.36-0.17,0.83-0.76,0.76-1.05c-0.27-1.15,0.6-1.55,1.19-2.15c0.45-0.45,0.97-0.85,1.34-1.36
					c0.15-0.21-0.03-0.66-0.06-1c0.52-0.03,1.04-0.05,1.56-0.09c0.46-0.04,0.93-0.09,1.38-0.16c4.09-0.65,8.18-1.38,12.29-1.92
					c2.76-0.37,5.55-0.48,8.24-0.7c0.84,2,0.84,2,0.08,2.99c-0.94,1.23-0.94,3.45-0.01,4.6c0.77,0.94,2.21,0.91,2.89-0.05
					c0.6-0.86,0.55-3.62-0.3-4.25c-1.27-0.95-0.92-2-0.69-3.11c5.48-1.01,23.12,0.11,26.43,1.65c0.23,1.65,0.23,1.65-0.57,2.48
					c-0.91,0.94-0.99,3.95-0.02,4.82c0.32,0.28,1.05,0.36,1.49,0.22c1.76-0.59,2.55-3.36,1.25-4.74c-0.77-0.82-0.94-1.54-0.67-2.55
					c2.19-0.55,3.87,1.15,6.22,1.25c-1.44-1.52-3.11-1.62-4.54-2.24c-0.95-0.41-1.82-0.99-2.83-1.55c-0.33,0.58-0.93,0.92-1.99,0.7
					c-1.79-0.36-3.63-0.58-5.46-0.66c-5.82-0.23-11.65-0.4-17.47-0.52c-1.17-0.02-2.22-0.05-2.94-1.74
					c-0.19,1.96-1.43,1.75-2.52,1.87c-4.2,0.44-8.41,0.87-12.61,1.37c-1.86,0.22-3.69,0.62-5.54,0.93
					c-0.05-0.12-0.11-0.23-0.16-0.35c1.26-1.19,2.52-2.37,3.79-3.56c-0.1-0.15-0.2-0.29-0.3-0.44c-1.92,0.47-3.85,0.9-5.76,1.41
					c-0.92,0.25-1.83,0.57-2.7,0.96c-1.76,0.78-2.85,2.04-2.58,4.11c0.14,1.08,0.33,2.14,0.5,3.22
					C472.37,231.17,471.74,231.96,471.11,232.75z M476.2,259.08c0.93,0.41,1.67,0.88,2.47,1.07c2.32,0.54,4.65,1.14,7.02,1.41
					c13.7,1.6,27.4,1.48,41.06-0.51c2.51-0.36,4.98-1.05,7.44-1.69c0.77-0.2,1.71-0.41,2-1.65c-0.91-0.36-1.76-0.85-2.66-1.02
					c-3.05-0.57-6.11-1.15-9.19-1.49c-8.99-0.99-18.01-1.16-27.02-0.39c-5.31,0.45-10.61,1.19-15.89,1.98
					C479.67,257.05,477.82,257.46,476.2,259.08z M556.18,357.02c1.92-0.69,7.56-5.76,8.95-7.9c-2.31-2.63-7.15-5.84-8.95-5.85
					C556.18,347.77,556.18,352.27,556.18,357.02z M545.75,297.54c0-2.23,0-4.11,0-6.2c-2.96-0.54-5.79-1.05-8.62-1.56
					C539.43,293.03,542.1,295.64,545.75,297.54z M550.48,297.66c3.36-1.95,5.75-4.35,7.6-7.84c-2.69,0.54-5.07,1.03-7.6,1.54
					C550.48,293.42,550.48,295.37,550.48,297.66z M484.7,231.75c0.29,0.08,0.44,0.16,0.59,0.16c4.03-0.05,4.52,0.44,4.44,4.45
					c0,0.08,0,0.16,0,0.24c-0.09,2.34-0.82,3.1-3.16,3.28c-0.98,0.07-1.97,0.1-3.41,0.18c2.2,1.21,5.94,0.7,6.93-0.68
					c0.35-0.49,0.59-1.15,0.65-1.75c0.1-1.19,0.12-2.39,0.03-3.58c-0.13-1.82-1.04-2.7-2.87-2.9c-0.77-0.09-1.56-0.08-2.25-0.11
					c-1.21-2.05-2.01-2.42-3.38-1.67c-1,0.55-1.1,1.38-0.34,2.69c0.64-0.64,0.16-2.29,1.9-2.02
					C484.11,230.61,484.43,231.22,484.7,231.75z"/>
				<path fill="#ED2024" d="M565.76,256.84c-0.06-0.63-0.17-1.26-0.17-1.9c0.04-19.77,0.1-39.54,0.15-59.31c0,0-0.08,0.07-0.08,0.07
					c2.05,0,4.1,0,6.18,0c0.47,1.46,0.52,2.66,0.06,3.92c-0.69,1.87-0.4,2.76,1.12,3.92c0.25,0.19,0.52,0.44,0.81,0.49
					c2.69,0.42,4.6,2.39,6.96,3.46c0.29,0.13,0.57,0.31,0.81,0.51c4.42,3.8,8.83,7.6,13.32,11.46c-0.17,0.45-0.26,0.82-0.44,1.14
					c-0.64,1.12-0.53,2.23,0.35,3.08c1.88,1.82,2.18,4.27,2.26,6.54c0.22,6.23,0.02,12.46,0.11,18.7c0.03,1.71-1.14,2.22-2.13,3.36
					c-0.53-0.71-0.76-1.28-1.17-1.52c-0.57-0.32-1.33-0.62-1.91-0.49c-0.42,0.09-0.84,0.87-0.96,1.41
					c-0.17,0.76-0.06,1.59-0.07,2.39c0,0.86,0.2,1.6,1.2,1.79c1.05,0.21,1.91,0.07,2.25-1.15c0.08-0.27,0.31-0.5,0.57-0.88
					c0.4,0.3,0.88,0.47,0.94,0.74c0.29,1.32,0.66,2.66,0.66,3.99c0.02,8.31-0.06,16.62-0.11,24.92c0,0.71-0.07,1.42-0.09,1.95
					c-0.83,0.59-1.46,1.15-2.19,1.52c-0.53,0.27-1.18,0.32-1.79,0.38c-0.71,0.07-1.46-0.05-2.14,0.11
					c-0.34,0.08-0.79,0.61-0.79,0.94c0,0.33,0.45,0.89,0.77,0.95c0.77,0.16,1.59,0.08,2.39,0.1c1.9,0.05,2.11,0.17,2.63,2.07
					c0.27,0.99,0.5,2.03,0.5,3.05c0.04,8.87,0.03,17.74,0.02,26.61c0,0.31-0.07,0.62-0.13,1.12c-2.15-0.14-3.44,1.28-4.81,2.6
					c-6.45,6.2-12.92,12.38-19.39,18.56c-0.69,0.66-1.4,1.28-2.26,2.06c-0.4-0.75-0.78-1.33-1.04-1.96
					c-1.92-4.62-2.95-9.42-2.9-14.45c0.11-12.54,0.16-25.09,0.23-37.64c0.01-0.95,0-1.89,0-3.05c3.46-0.2,6.23-2.07,9.67-2.06
					c3.13,0.01,6.28-0.97,9.4-1.63c0.73-0.15,1.35-0.78,2.04-1.16c0.76-0.43,1.06-1.4,2.31-1.35c0.86,0.03,1.12-1.2,0.95-2.12
					c-0.28-1.51-0.41-2.96,0.5-4.37c0.27-0.41,0.15-1.09,0.16-1.65c0.05-2,0.12-3.99,0.11-5.99c-0.01-1.33,0.07-2.61-0.82-3.87
					c-0.48-0.69-0.19-1.98-0.11-2.99c0.17-2.08-0.1-1.75-1.68-3.2c-1.76-1.63-3.61-1.35-5.54-1.37c-4.71-0.05-9.43-0.06-14.14-0.06
					c-0.87,0-1.74,0.12-2.61,0.18L565.76,256.84z"/>
				<path fill="#ED2024" d="M341.72,299.36c2.79,0.01,5.59,0.15,8.37,0c14.42-0.82,28.52-3.32,42.2-8.03
					c14.01-4.83,26.91-11.71,38.62-20.82c0.62-0.48,1.26-0.95,2.09-1.56c0.12,1.28-0.57,1.88-1.31,2.2
					c-1.37,0.59-1.61,1.61-1.51,2.9c0.04,0.55-0.05,1.1-0.09,1.79c-0.92,0.44-1.85,0.89-2.78,1.31c-6.44,2.9-12.53,6.37-17.79,11.15
					c-0.82,0.75-1.62,1.06-2.79,0.88c-2.63-0.41-5.54,1.36-6.47,3.86c-0.19,0.5-0.06,1.24,0.18,1.75c0.26,0.55,0.82,0.95,1.36,1.54
					c-3.97,5.2-6.8,10.95-8.14,17.64c-7.29,0.21-14.5-0.32-21.71-0.23c-0.34-1.84-0.87-3.33,1.18-4.11
					c0.31-0.12,0.47-0.97,0.46-1.49c-0.01-0.79-0.21-1.57-0.36-2.36c-0.17-0.87-0.71-1.59-1.58-1.51c-0.69,0.07-1.59,0.49-1.93,1.05
					c-0.48,0.77-0.6,1.8-0.76,2.73c-0.17,0.95,0.31,1.49,1.07,2.15c0.88,0.76,0.44,2.05,0.1,3.44c-5.87-0.3-11.72-0.6-17.71-0.9
					c0.35,1.24,1.23,1.06,1.96,1.09c4.39,0.19,8.78,0.36,13.16,0.52c1.38,0.05,2.8-0.01,3.3,2.36c0.82-2.2,2.26-1.94,3.64-1.92
					c5.51,0.06,11.03,0.1,16.54,0.15c0.69,0.01,1.39,0.09,2.05,0.13c0.45,1.32-0.03,1.85-1.05,2.4c-2.73,1.45-5.61,1.49-8.57,1.39
					c-8.7-0.29-17.4-0.52-26.1-0.77c-0.08,0-0.16,0-0.24-0.01c-2.85-0.19-5.67-0.44-7.45-3.81c-0.2,0.96-0.36,1.39-0.37,1.82
					c-0.13,4.47-0.18,8.94-0.38,13.41c-0.07,1.55,0.43,2.47,1.7,3.35c10.19,7.03,20.34,14.14,30.49,21.23
					c0.65,0.45,1.28,0.94,1.89,1.39c-0.48,1.99-1.13,2.45-2.72,1.83c-0.58-0.23-1.1-0.64-1.62-1.01c-4.13-2.87-8.3-5.7-12.37-8.66
					c-1.35-0.98-2.48-1.09-3.95-0.33c-2.9,1.51-5.88,2.87-8.82,4.31c-0.48,0.24-0.93,0.55-1.98,1.17c0.73,0.43,1.24,0.66,1.67,0.99
					c1.78,1.35,3.52,2.76,5.33,4.08c0.69,0.5,1.53,0.81,2.3,1.2c0.5,0.25,1.06,0.42,1.48,0.76c2.14,1.77,4.25,3.59,6.39,5.41
					c-2.27,2.15-7.19,2.75-9.55,1.29c-0.38-0.24-0.83-0.62-0.94-1.02c-0.42-1.64-2.21-2.76-1.76-4.75c0.06-0.26-0.52-0.74-0.88-1.02
					c-2.11-1.58-4.26-3.11-6.37-4.7c-0.8-0.6-1.55-0.69-2.43-0.19c-0.83,0.47-1.78,0.77-2.54,1.33c-1.92,1.43-4.04,1.73-6.34,1.59
					c-1.57-0.1-3.15-0.02-4.65-0.02c-0.46,1.35-0.36,2.21,0.2,3.24c0.59,1.08,0.77,2.4,1,3.65c0.21,1.16-0.46,1.84-1.57,1.98
					c-1.76,0.21-3.5,0.24-5.03-1.18c0.25-1.65,0.87-3.17,1.73-4.6c1.12-1.85,0.83-3.18-1.07-4.1c-6.68-3.24-13.4-6.41-20.08-9.64
					c-0.97-0.47-1.76-0.44-2.66,0.2c-8.33,5.93-16.69,11.82-25.04,17.72c-0.58,0.41-0.73,0.93-0.92,1.67
					c-0.46,1.72-1.49,3.28-2.34,4.89c-0.13,0.25-0.49,0.5-0.77,0.54c-3.22,0.43-6.45,0.78-9.7-1.39c2.44-2.04,4.44-4.4,6.98-5.7
					c6.29-3.22,11.65-7.75,17.41-11.7c12.66-8.66,25.14-17.59,37.72-26.36c0.94-0.66,2.11-0.99,3.42-1.58c0-8.41,0-17.01,0-25.78
					c2.07,0,3.93,0,6.03,0c0.08,1.17,0.23,2.26,0.22,3.35c-0.04,6.71-0.11,13.42-0.17,20.14c-0.01,0.87,0,1.73,0,2.15
					c2.71,1.43,5.05,2.67,7.61,4.02c0.06-0.68,0.14-1.2,0.16-1.71c0.18-7.43,0.36-14.85,0.53-22.28c0.01-0.47,0.06-1.01-0.14-1.39
					c-0.56-1-1.26-1.93-1.93-2.92c-0.1,0-0.31-0.07-0.4,0.01c-0.62,0.52-0.99,1.72-2.04,1.16c-1.13-0.6-0.79-1.77-0.59-2.8
					L341.72,299.36z M330.11,354.45c1.79-1.02,2.44-2.3,2.41-4.21c-0.12-6.22-0.06-12.44-0.09-18.67c0-0.68-0.1-1.36-0.18-2.43
					c-0.92,0.46-1.56,0.7-2.1,1.08c-6.27,4.39-12.52,8.8-18.76,13.23c-0.47,0.33-0.86,0.77-1.48,1.34
					C316.87,348.12,323.54,351.31,330.11,354.45z M344.31,347.11c1.41,1.04,2.54,1.77,3.55,2.64c0.94,0.81,1.75,0.77,2.81,0.23
					c2.83-1.44,5.73-2.77,8.59-4.17c0.68-0.33,1.32-0.74,2.03-1.14c-2.3-2.29-10.83-8.06-12.56-8.47c0,1.79-0.06,3.53,0.02,5.27
					c0.08,1.8-0.74,3.03-2.16,3.98C345.95,345.89,345.33,346.37,344.31,347.11z M342.26,345.38c2.44-0.95,3.68-2.5,3.37-5.16
					c-0.13-1.09,0.1-2.23,0.24-3.33c0.3-2.26-0.19-4.04-2.47-5.08c-1-0.46-1.81-1.31-2.75-1.9c-0.43-0.27-0.97-0.34-1.82-0.61
					c-0.03,1.05-0.07,1.82-0.07,2.58c0,2.72,0.23,5.45-0.03,8.14c-0.23,2.45,0.72,3.94,2.74,4.99
					C341.69,345.12,341.91,345.21,342.26,345.38z M341.15,349.21c-0.79,0.54-1.35,0.85-1.81,1.27c-0.63,0.57-0.87,3-0.34,3.55
					c0.8,0.83,1.77,0.54,2.64,0.15c1.17-0.52,2.29-1.15,3.76-1.9C343.77,351.11,342.51,350.2,341.15,349.21z"/>
				<path fill="#ED2024" d="M435.98,367.8c-0.56-0.25-1.19-0.57-1.85-0.81c-8.67-3.25-16.73-7.54-23.66-13.76
					c-0.71-0.64-1.5-1.41-2.54-0.98c-2.69,1.08-4.2-0.52-5.67-2.32c-0.2-0.24-0.31-0.56-0.55-1.03c0.61-0.7,1.27-1.45,1.96-2.23
					c-1.97-3.06-3.9-6.04-6.03-9.36c-0.46,0.66-0.9,1.08-1.09,1.6c-2.08,5.6-4.16,11.21-6.14,16.85c-0.49,1.39-0.58,2.91-0.96,4.34
					c-0.26,0.99-0.61,1.87-1.81,2.31c-0.58,0.21-1,1.18-1.27,1.88c-0.73,1.85-1.23,3.8-2.03,5.61c-0.55,1.25-0.46,2.13,0.64,2.74
					c-0.25,1.39-0.46,2.64-0.69,3.88c-0.34,1.81-1.06,2.38-2.9,2.48c-2,0.11-3.85-0.04-4.95-2.16c0.85-1.64,1.72-3.3,2.74-5.28
					c0.95-0.05,1.74-0.67,2.15-2.14c0.68-2.45,1.7-4.8,2.63-7.35c-1.11-0.95-2.21-1.88-3.42-2.91c0.16-0.16,0.38-0.57,0.55-0.55
					c2.84,0.38,3.77-1.91,4.52-3.72c1.84-4.41,3.4-8.95,4.85-13.51c0.8-2.53,1.14-5.2,1.69-7.81c-0.16-0.08-0.32-0.17-0.47-0.25
					c-0.38,0.31-0.73,0.69-1.16,0.9c-0.51,0.25-1.14,0.57-1.63,0.47c-0.76-0.16-0.79-0.91-0.59-1.57c0.3-0.99,0.54-2.02,1-2.93
					c0.24-0.47,0.95-1.02,1.38-0.97c0.41,0.05,0.77,0.81,1.09,1.3c0.16,0.25,0.18,0.58,0.37,1.23c1.09-1.05,2-1.94,3.06-2.97
					c-0.1-0.73-0.18-1.59-0.36-2.44c-0.24-1.15-0.71-1.94-2.09-2.23c-2.12-0.44-2.32-0.9-2.29-2.97c0.03-1.98,0.24-2.22,2.5-2.8
					c0.38-0.1,0.77-0.17,1.08-0.24c1.17-3.88,2-7.81,3.54-11.44c1.54-3.64,3.78-6.99,5.82-10.68c-0.45-0.5-1.13-1.25-1.77-1.97
					c1.34-3.16,2.55-3.92,5.84-3.68c1.01,0.07,1.86-0.11,2.64-0.81c7.21-6.41,15.54-10.88,24.59-14.09
					c0.44-0.16,0.86-0.39,1.42-0.65c-0.28-1.57,0.11-2.89,1.78-3.38c1.95-0.57,3.99-1.63,5.83,0.21c0.85,0.84,1.68,0.88,2.82,0.66
					c12.6-2.5,25.23-2.56,37.86-0.18c1.55,0.29,2.94,0.47,4.17-0.9c0.39-0.43,1.29-0.49,1.98-0.55c0.54-0.05,1.11,0.13,1.65,0.26
					c3.07,0.75,3.18,0.88,3.52,4.04c0.88,0.33,1.83,0.71,2.79,1.06c8.42,3.06,16.12,7.36,22.88,13.26c1.07,0.94,2.15,1.2,3.5,1.01
					c2.02-0.28,4.27,1.06,4.89,2.92c0.12,0.37,0,0.97-0.25,1.29c-0.38,0.49-0.96,0.82-1.41,1.17c2.15,3.75,4.48,7.11,6.06,10.8
					c1.55,3.62,2.34,7.57,3.53,11.58c0.36,0.1,0.98,0.24,1.57,0.44c1.57,0.54,2.13,1.36,2.1,3.05c-0.03,1.49-0.62,2.24-2.24,2.67
					c-0.82,0.22-2.02,0.03-2.07,1.19c-0.06,1.41-0.96,2.98,0.53,4.25c0.61,0.52,1.1,1.17,1.62,1.73c0.37-0.27,0.58-0.35,0.6-0.46
					c0.15-0.72-0.17-1.68,1.05-1.78c1-0.08,1.46,0.52,1.71,1.34c0.31,0.99,0.64,1.98,0.81,2.99c0.06,0.37-0.23,1.06-0.53,1.17
					c-0.43,0.16-1.09,0.07-1.49-0.17c-0.53-0.33-0.61-1.41-1.69-0.9c-0.06,0.17-0.26,0.41-0.21,0.59c0.97,3.77,1.59,7.62,3.04,11.26
					c1.16,2.89,2.15,5.84,3.25,8.75c0.28,0.74,0.62,1.48,1.07,2.11c0.94,1.33,1.92,2.68,3.88,2.44c0.08-0.01,0.18,0.24,0.37,0.49
					c-1.1,0.89-2.21,1.79-3.43,2.78c1,2.83,1.86,5.56,2.96,8.2c0.31,0.74,1.31,1.18,2.17,1.92c0.41,0.78,0.9,1.86,1.5,2.87
					c1.2,1.99,0.55,3.59-1.77,3.98c-1.01,0.17-2.08,0.12-3.11,0.01c-1.12-0.13-1.92-1.24-2.06-2.58c-0.12-1.18-0.26-2.35-0.41-3.76
					c0.99-0.56,0.85-1.56,0.38-2.69c-0.82-1.99-1.55-4.01-2.33-6.02c-0.17-0.44-0.31-1.13-0.62-1.23c-2.29-0.74-2.3-2.81-2.79-4.59
					c-0.52-1.89-0.8-3.87-1.46-5.71c-1.66-4.65-3.47-9.24-5.24-13.85c-0.11-0.28-0.28-0.54-0.61-1.14c-0.54,0.56-0.99,0.92-1.3,1.38
					c-1.32,2-2.56,4.05-3.88,6.04c-1.16,1.75-1.18,1.73,0.45,3.29c0.17,0.16,0.29,0.38,0.47,0.62c-0.52,1.7-1.75,2.83-3.28,3.55
					c-0.63,0.3-1.54,0.2-2.28,0.04c-1.1-0.24-1.97-0.12-2.85,0.67c-7.36,6.62-15.94,11.12-25.21,14.4c-0.22,0.08-0.43,0.2-0.75,0.35
					c-0.05,0.41-0.13,0.87-0.17,1.33c-0.03,0.39-0.01,0.79-0.01,1.22c-1.42,1.2-3.16,1.58-4.88,1.69c-0.83,0.05-1.83-0.48-2.54-1.02
					c-0.85-0.64-1.63-0.83-2.65-0.62c-7.15,1.46-14.37,2.13-21.67,1.97c-5.69-0.12-11.31-0.81-16.89-1.85
					c-1.25-0.23-2.29-0.32-3.27,0.75c-0.86,0.93-2.04,1.19-3.3,0.67c-0.36-0.15-0.78-0.17-1.16-0.27
					C436.24,370.84,436.21,370.81,435.98,367.8z M465.64,273.08c-11.14,0.3-20.91,1.5-32.72,6.16c-9.34,3.68-17.66,8.93-24.36,16.52
					c-5.88,6.66-9.61,14.34-10.21,23.26c-0.62,9.31,2.34,17.63,7.94,25.02c6.6,8.71,15.32,14.63,25.3,18.75
					c14.95,6.17,30.47,7.93,46.49,5.85c8.53-1.11,16.74-3.31,24.54-6.94c9.42-4.38,17.74-10.24,23.68-18.93
					c8.67-12.67,9.6-25.93,2.17-39.51c-4.29-7.84-10.73-13.65-18.26-18.29C496.64,276.61,481.67,273.35,465.64,273.08z
					 M440.66,273.19c-0.22-1.07-0.59-1.28-1.21-0.86c-0.1,0.07-0.11,0.27-0.16,0.41C439.68,272.87,440.08,273,440.66,273.19z
					 M526.52,350.66c0.33-0.31,0.66-0.49,0.68-0.68c0.01-0.19-0.3-0.56-0.49-0.56c-0.22-0.01-0.56,0.23-0.65,0.45
					C526,350,526.29,350.29,526.52,350.66z"/>
				<path fill="#ED2024" d="M448.71,253.95c2.92,0.81,5.89,1.46,8.74,2.47c2.51,0.89,3.18,3.81,1.42,5.6
					c-0.59,0.6-1.42,1.07-2.23,1.31c-2.21,0.66-4.44,1.35-6.71,1.68c-4.34,0.62-8.71,0.99-13.57,1.51c0.61-0.91,0.92-1.38,1.43-2.14
					c-2.27,0-4.37,0-6.47,0c-2.08,0-4.15,0.01-6.23,0c-2.16-0.01-4.32,0-6.47-0.09c-2.15-0.09-4.3-0.26-6.45-0.43
					c-2.07-0.16-4.14-0.32-6.2-0.57c-2.1-0.26-4.19-0.63-6.84-1.03c2.97-2.07,5.49-3.82,8.08-5.62c-2.98-1.18-14.35,0.68-17.08,2.76
					c0.94,1.26,2.4,1.47,3.73,1.88c1.28,0.39,2.59,0.67,4.1,1.05c-0.45,0.54-0.77,0.94-1.35,1.64c6.36,1.53,12.62,2.15,18.94,2.37
					c6.38,0.22,12.76,0.39,19.01,0.57c-0.72,0.89-0.72,0.85-1.48,0.7c-0.77-0.15-1.55-0.31-2.33-0.33
					c-3.91-0.06-7.83,0.01-11.74-0.14c-3.42-0.13-6.83-0.5-10.25-0.74c-0.53-0.04-1.08,0.06-1.77,0.1c-0.1,0.7-0.16,1.31-0.27,1.91
					c-0.14,0.7-0.25,1.41-0.5,2.07c-0.27,0.72-0.85,1.32-1.65,1.03c-0.58-0.21-1.34-0.76-1.45-1.28c-0.3-1.36-0.3-2.79-0.43-4.35
					c-0.21-0.05-0.59-0.19-0.97-0.22c-4.51-0.34-8.33-2.82-12.54-4.09c-1.55-0.47-2.24-1.7-2.15-3.35c0.06-1.2,0.07-2.4,0.1-3.59
					c0.02-0.86-0.01-1.62-0.54-2.47c-1.12-1.8-0.23-4.48,1.74-5.45c1-0.49,1.43-1.05,1.47-2.16c0.07-2.23,0.27-4.46,0.46-6.68
					c0.08-0.99-0.22-1.55-1.15-2.08c-2.23-1.27-2.61-3.66-1.15-5.66c0.34-0.47,0.6-1.08,0.68-1.66c0.12-0.78,0.03-1.59,0.03-2.76
					c0.8,0.36,1.33,0.59,1.85,0.82c0,0-0.06-0.09-0.06-0.09c0.21,0.17,0.4,0.38,0.64,0.49c1.59,0.75,3.19,1.48,4.78,2.22
					c0.17,0.42,0.38,0.82,0.5,1.26c0.34,1.24,1.19,1.89,2.4,2.02c1.27,0.14,1.53-0.9,1.87-1.8c0.04-0.12,0.23-0.18,0.48-0.35
					c4.82,0.85,9.72,0.84,14.63-0.24c4.85-1.06,9.19-3.36,13.56-5.49c0.19,0.34,0.27,0.41,0.26,0.47c-0.02,0.15-0.04,0.4-0.13,0.43
					c-2.23,0.91-1.68,2.75-1.44,4.42c0.14,0.94,0.81,1.57,1.82,1.6c0.99,0.03,1.78-0.45,1.92-1.44c0.21-1.51,1.55-3.22-0.6-4.44
					c-0.15-0.09-0.16-0.43-0.23-0.65c-0.76-2.37-1.21-2.83-3.56-2.79c-7.03,0.11-14.06,0.25-21.08,0.53
					c-2.43,0.1-4.84,0.62-7.32,0.95c-0.01,1.37-0.76,2.57,0.49,3.35c1.2,0.75,0.95,1.64,0.67,2.62c-1.5-0.15-2.9-0.3-4.29-0.44
					c0.44-0.65,0.75-1.44,1.33-1.92c1.15-0.95,1.07-1.95,0.53-3.2c-0.86,0-1.65,0-2.44,0l0.05,0.05c0.56-0.24,1.16-0.43,1.68-0.75
					c0.56-0.35,1.05-0.83,1.61-1.29c0.99,1.18,2.44,0.62,3.78,0.53c4.22-0.29,8.43-0.76,12.65-0.91c4.31-0.16,8.63-0.05,12.95-0.03
					c1.09,0.01,2.18,0.13,2.31-1.57c1.07,1.76,2.57,2.38,4.2,2.61c3.79,0.54,7.6,0.96,11.4,1.45c0.78,0.1,1.54,0.31,2.78,0.57
					c-11.02,8.88-21.88,17.37-33.02,25.64c1.49,0.64,9.95,0.87,12.67,0.4c0.11-1.3,0.97-2.63-0.74-3.77
					c-0.9-0.6-0.32-3.93,0.59-4.59c0.91-0.66,2.38-0.38,2.55,0.68c0.24,1.52,1.19,3.19-0.73,4.53c-1,0.69-0.63,2.01-0.54,3.33
					c0.91,0.12,1.75,0.24,2.6,0.33c5,0.55,10,1.06,14.99,1.67c0.6,0.07,1.13,0.67,1.69,1.02c-5.79-1.33-11.67-1.79-17.57-2.17
					c-1.31-0.08-1.31-0.03-2.48,1.23c-0.31-1.52-1.43-1.53-2.58-1.53c-1.44,0-2.88,0-4.31-0.08c-3.31-0.18-6.63-0.62-9.93-0.56
					c-4.06,0.08-8.12,0.57-12.18,0.86c-0.61,0.04-1.22,0.01-1.95,0.01c0-0.85,0-1.54,0-2.11c0.67-0.56,1.63-0.97,1.73-1.53
					c0.2-1.14,0.01-2.38-0.16-3.55c-0.16-1.03-0.92-1.17-1.83-0.91c-1.78,0.5-3.04,3.65-1.82,5.1c0.94,1.13,0.76,2.13,0.54,3.31
					c-2.37,0.93-5.01,0.85-7.08,2.45c0.47,0.12,0.92,0.13,1.34,0.02c1.15-0.31,2.29-0.71,3.44-0.99c1.1-0.27,2.22-0.43,3.04,0.92
					c0.56-1.74,1.92-1.82,3.15-1.92c3.74-0.3,7.49-0.51,11.24-0.72c0.48-0.03,0.98,0.16,1.77,0.3c-1.75,1.36-3.21,2.5-5,3.91
					c12.41-0.5,24.24-0.21,36.43,1.54c-2.08,2.47-4.28,4.25-5.84,6.64c4.27-0.28,8.39-0.7,12.49-1.29c1.82-0.26,3.7-0.62,5.33-2.17
					c-3.46-2.34-7.39-2.34-11.35-3.43C446.53,256.02,447.62,254.99,448.71,253.95z"/>
				<path fill="#ED2024" d="M385.17,257.63c0.37,1.28,0.67,2.34,1.03,3.57c-0.34,0.09-0.68,0.26-1.02,0.26
					c-3.2,0.01-6.39,0-9.59-0.02c-1.5-0.01-3.04,0.05-3.55-1.93c-1.34,1.67-1.34,1.68-3.44,1.69c-4.15,0.02-8.31,0.02-12.46,0.04
					c-3.17,0.02-3.49,0.48-2.6,3.8c1.4-0.35,0.56-1.64,1.06-2.34c1.49-0.57,12.99-0.78,16.46-0.25c0.12,1.29,0.81,2.55-0.9,3.65
					c-0.93,0.6-0.32,4.15,0.59,4.9c1.13,0.93,2.84,0.42,3.14-1.05c0.32-1.55,1.17-3.18-0.82-4.5c-0.53-0.35-0.37-1.73-0.58-2.93
					c1.06-0.07,1.82-0.18,2.58-0.17c3.35,0.03,6.71,0.16,10.06,0.12c2.02-0.02,3.95,0.18,5.84,0.98c1.09,0.46,2.27,0.71,3.92,1.21
					c-13.39,8.45-26.85,15.89-41.19,22.2c-0.08-0.8-0.2-1.33-0.18-1.86c0.11-4.07,0.22-8.14,0.41-12.2c0.04-0.88-0.3-1.29-0.99-1.69
					c-2.85-1.67-3.07-2.8-1.84-6.04c0.45-1.18,0.44-2.65,0.27-3.93c-0.16-1.22,0.17-1.78,1.11-2.54c1.77-1.43,3.69-1.35,5.74-1.32
					c8.07,0.12,16.14,0.14,24.2,0.22C383.36,257.52,384.3,257.59,385.17,257.63z"/>
				<path fill="#ED2024" d="M332.54,295.04c-0.3-2.03-0.53-4.07-0.96-6.07c-0.12-0.58-0.71-1.24-1.26-1.49
					c-0.7-0.32-1.06,0.27-1.31,0.98c-0.3,0.86-1.18,0.9-1.81,0.59c-0.46-0.23-0.86-0.87-0.98-1.4c-0.17-0.76-0.12-1.6-0.03-2.39
					c0.15-1.28,1.48-1.81,2.46-0.99c0.56,0.47,0.61,1.7,1.68,1.34c0.63-0.21,1.1-0.84,1.67-1.25c0.31-0.22,0.68-0.37,1.2-0.64
					c0-1.23,0-2.5,0-3.77c0.03-14.79,0.09-29.57,0.05-44.36c0-1.24-0.65-2.47-1.06-3.94c-0.56,0.42-1.01,0.69-1.38,1.04
					c-3.19,3.02-6.34,6.09-9.55,9.09c-1.58,1.47-2.05,1.43-3.73-0.11c0.54-0.56,1.06-1.12,1.61-1.66c3.22-3.1,6.44-6.21,9.69-9.29
					c0.84-0.8,1.57-1.46,1.07-2.85c-0.41-1.15,0.12-2.34,1.15-2.91c1.22-0.68,2.58-1.29,3.95-1.47c1.28-0.16,2.24-0.55,3.14-1.44
					c2.45-2.41,4.96-4.75,7.44-7.13c2.57-2.46,5.44-4.66,6.88-8.35c-0.91-3.27-0.53-4.06,3.14-5.61c2.02,1.53,4.15,3.15,6.31,4.78
					c-0.62,1.43-1.76,1.81-2.84,2.3c-1,0.45-1.97,0.99-2.9,1.57c-5.88,3.68-10.23,9.1-15.36,13.64c-0.47,0.41-0.84,0.93-1.27,1.41
					c0.15,0.38,0.22,0.71,0.4,0.95c0.99,1.34,0.68,2.58-0.36,3.67c-0.78,0.81-0.82,1.79-1.1,2.79c-1.65,5.82-0.65,11.71-0.68,17.56
					c-0.06,10.55,0.02,21.1,0.05,31.65c0,1.21-0.4,2.62,1.44,3.07c0.27,0.07,0.47,0.96,0.49,1.47c0.08,2.4-0.1,4.78-1.25,7.11
					c-1.97,0.65-4.01,1.33-6.04,2.01L332.54,295.04z"/>
				<path fill="#ED2024" d="M565.74,195.63c-0.85,0.19-1.7,0.5-2.56,0.55c-10.43,0.51-20.86,1.22-31.31,0.51
					c-1.82-0.12-3.61-0.56-5.41-0.89c-0.46-0.09-0.92-0.27-1.33-0.51c-0.93-0.55-1.04-1.26-0.18-1.86c0.9-0.63,1.9-1.23,2.95-1.52
					c4.14-1.15,8.27-2.38,12.48-3.21c6.33-1.25,12.71-2.22,19.08-3.22c2.03-0.32,4.1-0.39,6.16-0.58l-0.06-0.07
					c0.03,3.63,0.07,7.26,0.11,10.89C565.66,195.71,565.74,195.63,565.74,195.63z"/>
				<path fill="#ED2024" d="M595.68,326.23c0,9.42,0,18.58,0,27.79c-0.95,0.66-1.86,0.28-2.66-0.22
					c-5.18-3.15-10.33-6.35-15.48-9.54c-0.18-0.11-0.29-0.36-0.42-0.53C578.42,341.87,594.12,326.96,595.68,326.23z"/>
				<path fill="#ED2024" d="M619.19,344.71c-4.86,3.83-14.07,9.29-16.26,9.51c-0.39-4.66-0.18-9.33-0.24-13.99
					c-0.05-4.59-0.01-9.19-0.01-13.83C604.18,327.05,614.85,338.93,619.19,344.71z"/>
				<path fill="#ED2024" d="M537.19,348.27c0.71,1.93,1.35,3.68,1.99,5.42c-0.27,0.13-0.46,0.27-0.51,0.23
					c-1.96-1.53-3.52-0.82-5.27,0.6c-2.84,2.3-5.88,4.36-8.86,6.5c-0.73,0.52-1.18,1.07-1.38,2.05c-0.25,1.21-0.89,2.38-1.55,3.46
					c-0.33,0.55-1,1.07-1.62,1.23c-2.55,0.69-5.02,0.38-7.42-0.79c1.1-2,4.8-5.3,6.65-6.04c0.58-0.23,1.19-0.47,1.68-0.83
					c5.11-3.8,10.2-7.63,15.3-11.45C536.39,348.52,536.64,348.48,537.19,348.27z"/>
				<path fill="#ED2024" d="M565.69,256.78c-0.16,1.08-0.31,2.16-0.48,3.29c-1.34,0.88-1.9-0.15-2.43-1.13
					c-0.8,0.55-1.46,1.24-2.25,1.47c-0.8,0.24-1.73,0-2.61,0c-5.65,0.02-11.31,0.06-16.96,0.08c-0.46,0-0.92-0.08-1.51-0.13
					c0.45-1.2,0.85-2.28,1.32-3.53c8.3,0,16.63,0,24.97,0C565.76,256.84,565.69,256.78,565.69,256.78z"/>
				<path fill="#ED2024" d="M403.97,370.48c-3.1,1.78-6.18,2.21-9.44,1.05c-0.41-0.15-0.95-0.53-1.04-0.9
					c-0.42-1.75-2.34-2.74-2.24-4.85c0.03-0.63-1.41-1.32-2.18-2c0.67-1.01,1.17-1.78,1.75-2.67
					C395.49,363.83,400.39,366.02,403.97,370.48z"/>
				<path fill="#ED2024" d="M341.79,299.3c-0.79,0-1.57,0-2.47,0c-0.52-2.11-0.29-4.15-0.18-6.34c2.52-0.96,5.02-1.92,7.74-2.96
					c0.49,1.7,0.1,3.27,0.18,4.81c0.09,1.83-2.38,2.13-2.08,4.23c-1.06-0.64-1.41-2.1-2.7-1.44c-0.75,0.38-1,0.98-0.58,1.77
					C341.72,299.36,341.79,299.3,341.79,299.3z"/>
				<path fill="#ED2024" d="M592.38,367.37c-4.73,1.97-8.96-0.39-8.96-5.17c1.6,0.96,3.05,1.84,4.51,2.69
					C589.36,365.71,590.82,366.5,592.38,367.37z"/>
				<path fill="#ED2024" d="M350.25,288.33c0.89-0.24,1.79-0.48,2.84-0.77c0,2.77,0,5.42,0,8.28c-0.91,0-1.71,0-2.77,0
					c0-2.57,0-5.08,0-7.58L350.25,288.33z"/>
				<path fill="#ED2024" d="M332.47,294.96c-0.1,1.24-0.2,2.49-0.31,3.84c-3.16,0.4-6.1-0.37-9.07-0.97
					c3.15-0.93,6.3-1.86,9.45-2.79C332.54,295.04,332.47,294.96,332.47,294.96z"/>
				<path fill="#ED2024" d="M447.31,230.84c1.33-2,1.95-2.35,3.18-1.91c0.98,0.36,1.05,0.6,0.74,2.54c-0.8-0.5-0.14-2.27-1.51-2.03
					c-0.64,0.11-1.12,1.14-1.82,1.92c-0.46,0-1.16-0.01-1.86,0c-2.22,0.03-2.75,0.49-3.12,2.73c-0.01,0.08-0.03,0.16-0.04,0.24
					c-0.49,4.64,0.39,5.77,4.58,5.73c0.51,0,1.02,0.16,1.5,0.42c-1.88,0.51-3.7,0.08-5.41-0.55c-0.65-0.24-1.28-1.25-1.41-2
					c-0.24-1.31-0.21-2.7-0.07-4.03c0.24-2.28,1.12-2.99,3.45-3.08C446.07,230.83,446.63,230.84,447.31,230.84z"/>
				<path fill="#ED2024" d="M451.67,250.79c-0.72,0.2-1.07-0.17-1.12-0.83c-0.05-0.71-0.01-1.42-0.01-2.19
					c0.64-0.27,1.21-0.51,1.75-0.73c0.43-1.19,0.85-2.35,1.37-3.77c-0.9-1.19-1.64-2.71-0.86-4.9c0.6,1.94,1.1,3.58,1.64,5.35
					c-0.37,1.01-0.83,2.25-1.35,3.66c-2.01,1.09-2.01,1.09-1.48,3.45L451.67,250.79z"/>
				<path fill="#ED2024" d="M546.1,370.86c-0.5,0.92-0.92,1.69-1.43,2.62c-0.66-0.23-1.38-0.47-2.48-0.85
					c0.96-1.38,1.76-2.53,2.8-4.03C545.52,369.69,545.85,370.35,546.1,370.86z"/>
				<path fill="#ED2024" d="M350.32,288.26c-0.85,0.37-1.69,0.75-2.92,1.29c0-1.1-0.04-1.85,0.01-2.6c0.07-1.03,0.69-1.6,1.71-1.54
					c0.89,0.05,1.14,0.71,1.13,1.51c-0.01,0.47,0,0.95,0,1.42C350.25,288.33,350.32,288.26,350.32,288.26z"/>
				<path fill="#ED2024" d="M580.5,260.99c-4.76,0-9.52,0-14.29,0c0-0.09,0-0.17,0-0.26c4.76,0,9.52,0,14.27,0
					C580.48,260.81,580.49,260.9,580.5,260.99z"/>
				<path fill="#ED2024" d="M572.59,284.57c-2.25,0.25-4.49,0.5-6.77,0.75c-0.43-0.84-0.18-1.27,0.68-1.28
					c2.06-0.02,4.12-0.01,6.18-0.01C572.65,284.21,572.62,284.39,572.59,284.57z"/>
				<ellipse fill="#ED2024" cx="572.05" cy="279.48" rx="7.91" ry="0.09"/>
				<path fill="#ED2024" d="M451.61,250.83c0.4,0.83,0.81,1.66,1.23,2.52c-1.24,0.89-2.11-0.18-3.39-0.07
					c0.86-0.97,1.53-1.73,2.21-2.49C451.67,250.79,451.61,250.83,451.61,250.83z"/>
				<path fill="#ED2024" d="M565.62,184.89c0.07-1.4,0.13-2.8,0.2-4.28c0.26,0.03,0.63,0.01,0.65,0.08c0.11,0.38,0.31,0.9,0.14,1.18
					c-0.54,0.93,0.74,2.51-1.06,2.95C565.55,184.82,565.62,184.89,565.62,184.89z"/>
				<path fill="#ED2024" d="M390.54,226.56c1.07-1.87,2.8-2.44,4.81-2.44c0,0-0.05-0.05-0.05-0.05c-1.61,0.8-3.22,1.6-4.82,2.4
					C390.48,226.47,390.54,226.56,390.54,226.56z"/>
				<path fill="#ED2024" d="M354.8,199.81c0.96,0.18,1.57,0.29,2.17,0.41C356.26,200.69,355.59,200.96,354.8,199.81z"/>
				<path fill="#ED2024" d="M390.48,226.47c1.61-0.8,3.22-1.6,4.82-2.4c0.79,0,1.58,0,2.44,0c0.54,1.24,0.62,2.24-0.53,3.2
					c-0.57,0.47-0.89,1.26-1.33,1.92c-0.01,0.01,0.04-0.01,0.03,0c-1.61-0.73-3.21-1.46-4.79-2.21
					C390.89,226.85,390.69,226.64,390.48,226.47z"/>
				<path fill="#ED2024" d="M467.54,368.44c-16.02-0.27-29.74-3.09-42.38-10.14c-8.15-4.54-15.18-10.41-20-18.52
					c-7.82-13.14-7.13-27.28,2.04-40.01c5.65-7.85,13.26-13.32,21.85-17.49c7.6-3.69,15.65-5.98,24-7.13
					c13.49-1.86,26.78-0.92,39.78,3.23c10.1,3.23,19.25,8.16,26.83,15.7c5.25,5.22,9.12,11.27,11.05,18.5
					c2.23,8.32,1.24,16.3-2.44,24c-3.69,7.71-9.46,13.6-16.4,18.4c-10.2,7.04-21.6,10.93-33.82,12.5
					C474.01,368,469.94,368.23,467.54,368.44z"/>
			</g>
		</g>
		
		
		
		<g id="Layer_9">
		</g>
	</g>
</switch>
</svg>
